<mxfile host="app.diagrams.net" modified="2021-11-01T02:50:43.572Z" agent="5.0 (Windows NT 10.0; Win64; x64) AppleWebKit/537.36 (KHTML, like Gecko) Chrome/94.0.4606.81 Safari/537.36" etag="BC5I_h54A6HOySnprBJ4" version="15.6.3" type="github">
  <diagram id="ejDo7a2_n7MFuMT26ayH" name="第 1 页">
    <mxGraphModel dx="2377" dy="1987" grid="1" gridSize="10" guides="1" tooltips="1" connect="1" arrows="1" fold="1" page="1" pageScale="1" pageWidth="827" pageHeight="1169" math="0" shadow="0">
      <root>
        <mxCell id="0" />
        <mxCell id="1" parent="0" />
        <mxCell id="M3HQzFZ4Vhxi7hrGT2tp-220" value="" style="rounded=1;whiteSpace=wrap;html=1;fontSize=16;fontColor=#000000;strokeWidth=2;fillColor=#B3B3B3;align=center;strokeColor=#B3B3B3;opacity=30;shadow=0;" vertex="1" parent="1">
          <mxGeometry x="67" y="444" width="349.8" height="229.33" as="geometry" />
        </mxCell>
        <mxCell id="M3HQzFZ4Vhxi7hrGT2tp-101" value="" style="group;aspect=fixed;" vertex="1" connectable="0" parent="1">
          <mxGeometry x="119.8" y="471.69000000000005" width="300" height="228.30999999999995" as="geometry" />
        </mxCell>
        <mxCell id="M3HQzFZ4Vhxi7hrGT2tp-102" value="" style="rounded=1;whiteSpace=wrap;html=1;fontSize=16;fontColor=#000000;strokeWidth=2;fillColor=#B3B3B3;align=center;strokeColor=#B3B3B3;opacity=30;shadow=1;" vertex="1" parent="M3HQzFZ4Vhxi7hrGT2tp-101">
          <mxGeometry x="-73.74" y="-11.36" width="349.8" height="229.33" as="geometry" />
        </mxCell>
        <mxCell id="M3HQzFZ4Vhxi7hrGT2tp-103" value="" style="ellipse;whiteSpace=wrap;html=1;aspect=fixed;shadow=0;sketch=0;fontSize=16;fontColor=#000000;strokeColor=#000000;strokeWidth=1;fillColor=none;align=center;dashed=1;dashPattern=1 2;" vertex="1" parent="M3HQzFZ4Vhxi7hrGT2tp-101">
          <mxGeometry x="12.92142857142856" y="15.08074285714284" width="175.5894886363635" height="175.5894886363635" as="geometry" />
        </mxCell>
        <mxCell id="M3HQzFZ4Vhxi7hrGT2tp-104" value="" style="ellipse;whiteSpace=wrap;html=1;aspect=fixed;shadow=0;sketch=0;fontSize=16;fontColor=#000000;strokeColor=#000000;strokeWidth=1;fillColor=none;align=center;dashed=1;dashPattern=1 2;" vertex="1" parent="M3HQzFZ4Vhxi7hrGT2tp-101">
          <mxGeometry x="49.52639999999995" y="51.68571428571424" width="102.78409090909084" height="102.78409090909084" as="geometry" />
        </mxCell>
        <mxCell id="M3HQzFZ4Vhxi7hrGT2tp-105" value="" style="ellipse;whiteSpace=wrap;html=1;aspect=fixed;shadow=0;fontSize=16;strokeColor=#6c8ebf;strokeWidth=1;fillColor=#dae8fc;align=center;sketch=0;" vertex="1" parent="M3HQzFZ4Vhxi7hrGT2tp-101">
          <mxGeometry x="49.52639999999995" y="119.4514285714285" width="18.272727272727263" height="18.272727272727263" as="geometry" />
        </mxCell>
        <mxCell id="M3HQzFZ4Vhxi7hrGT2tp-106" value="" style="ellipse;whiteSpace=wrap;html=1;aspect=fixed;shadow=0;fontSize=16;strokeColor=#6c8ebf;strokeWidth=1;fillColor=#dae8fc;align=center;sketch=0;" vertex="1" parent="M3HQzFZ4Vhxi7hrGT2tp-101">
          <mxGeometry x="67.90354285714281" y="45.942857142857115" width="18.272727272727263" height="18.272727272727263" as="geometry" />
        </mxCell>
        <mxCell id="M3HQzFZ4Vhxi7hrGT2tp-107" value="" style="ellipse;whiteSpace=wrap;html=1;aspect=fixed;shadow=0;fontSize=16;strokeColor=#6c8ebf;strokeWidth=1;fillColor=#dae8fc;align=center;sketch=0;" vertex="1" parent="M3HQzFZ4Vhxi7hrGT2tp-101">
          <mxGeometry x="134.52068571428563" y="119.4514285714285" width="18.272727272727263" height="18.272727272727263" as="geometry" />
        </mxCell>
        <mxCell id="M3HQzFZ4Vhxi7hrGT2tp-108" value="" style="shape=image;verticalLabelPosition=bottom;labelBackgroundColor=#ffffff;verticalAlign=top;aspect=fixed;imageAspect=0;image=data:image/png,iVBORw0KGgoAAAANSUhEUgAAAGgAAABoCAYAAAAdHLWhAAALCUlEQVR4Ae1ddcgUQRT/7O7uArsVVBRbsbu7sUXF1n8MsBsDwUDsTkzsFgO7G+zuevI7mGV2b7/77r6dnZk794Hs593ezHvvN/nemzdR5JHWGojSmjuPOfIA0rwReAB5AGmuAc3Z83qQB5DmGtCcPa8HeQBprgHN2fN6kAeQexr4+PEjPXz4kI4fP047duygNWvW0Pr162n37t105swZevbsGX3//t09BiSUHHY96Pr167R48WLq0KEDFS5cmJImTUpRUVF+/+LEiUNp0qShcuXK0cCBA2nr1q30+vVrCSoVW0VYAPThwwdatmwZ1a9fP1pA7ECyfpYnTx7q2bMnHT58WKwWXSxNa4B+//5NS5YsoeLFi/v1EKvyQ/l/3LhxqXnz5r6h0UXdCilaW4BOnDhBNWrUCAhMqlSpqFixYlStWjVq1aoV9e3bl3r16kVNmjShSpUqUYECBShhwoTRlpEgQQJfj8I8pitpCdCsWbMoceLEtorNkSMHtWnThpYvX+5bIHz69In+/Pnjp9+fP3/S+/fv6erVqzR9+nSqW7cuAVC7npY/f37av3+/Xxk6fKAVQF++fKF+/frZKhG9Yd68efT8+fNY6+3OnTs0dOhQSp06tV8d6GkzZsyIddlu/VAbgLAQqF27tp/ismfPTtOmTaO3b98K08Hly5epY8eOhLnI2qOGDRsmrB4RBWkB0OfPn6lWrVp+yqpatSrdvn1bhJy2ZaxatYqSJUvmV++ECRNs31fxoRYAderUyU9J7du3J2xE3aaDBw8Slt/WnrRgwQK3qw6qfOUAzZ492085Y8aMCYp5US89efKESpcubeIDm9xbt26JqiLW5SgF6MqVK35DDCwEKghgZMmSxQQSht2/f/+qYMeoUylAsAzwQ0vJkiUJiwVVtG/fPkqePLmJJ6wcVZIygDZt2mRSRJIkSejIkSMqdeGrGytGvtGkT5+eHj9+rIwvJQDBwgwjJq8IWAF0IOzFypYta+Jt8uTJylhTAtDOnTtNCsiYMaPSVmrVPlwX/B6paNGihK2AClICkHVZjWFFN2rUqJGpEe3du1cJi9IBgqmGXy3B7KKjsdI6R6oagqUDhJYIZxqbf6pXr66kZcZUKbyxGHoZnwULFqSvX7/G9DPh30sHCBMuExpPWK51paZNmxq8xo8fn44ePSqdVekA8fMPLMgXLlyQLnSwFS5cuNAACI0JrnbZJB2gChUqGEJjLlK5x4hJ2Xv27DF4BUAjRoyI6SfCv5cK0Ldv3yhnzpyG0BjX4VTTlRAZxM+Xbdu2lc6qVIBevXpFmTJlMgAqX768rTdUuhaiqfDGjRuUMmVKg9969epF86Z7H0sF6NGjR5QuXTpDYDjodKanT58SHIZsUQP/lGySCtCbN28oc+bMhsAI7NCZ4CJPmzatwW+dOnWksysVIARy5M2b1xC4SJEihKAPXen8+fMmk0+LFi2ksyoVIPhWeMcYhg9sCHWlAwcOGI0Jw1z//v2lsyoVIEiHgEE2pqdIkYJu3rwpXehgK0TMAuMVTxW+IekAWf0t69atC1Zf0t/r06ePARCs2ypi56QDhGGD31uocnHHhDbcC4jFYz0I+7d3797F9DPh30sH6MWLF5QtWzblgsekSXh348WLZ/CJ0GIVJB0gCNmtWzdDcLTQzZs3q5A9YJ2DBg0y8bhixYqA77v1pRKAEJzBhg484WJWYcqPTqmINkLYFeMRezcnIcfR1RPM50oAgt8fpxKYAvDUye3ArzTBW+/evYPRpSvvKAEIkixdutQEUNasWbWwbO/atcvEF/xA586dc0X5wRSqDCBYtvlNK1pqs2bNCIe2VBGOV+bKlcsEkMreAz0oAwiVb9myxaQMgDRy5Egl+KDBwLoOHtg/xGy/fPlSCT+sUqUAgYkhQ4YYCoFisCHcuHEj40/aE8H6DBjGBxYzqkk5QDCg4sgirxyYgGQta7Fg6dq1q6l+8KLLOSHlAKGFYvNqd1B43LhxrjZgzDm8C541EhyxRMPRgbQACIqA7wVnRZmS2LNx48Z08uRJobr69esXrVy50m9BgDpbt26tLIrUTkhtAAJzOAJi3R9BaYj+6dy5M128eNFOhqA/g7tj+/btVLlyZb+GgHpgHLU7kBx0BS68qBVAkA8GyR49etgqEHMTNpGLFi0K+nAVlu2nTp2iiRMnUpUqVWzLhc1t7NixLqjXeZHaAcREmj9/vinAhA157Ikj9ciPMGDAABo/frwPtA0bNvjy9cydO9encORMKFOmDCVKlMgWGJRVokQJ2rZtG6tWu6e2AEFTiJlDLBofF8AAcvrEHge+KZ1d7tCB1gAh+RHmjIoVK5p8SE7AwRw3adIkZcbPULuolgBh1YZ5CPY5J2DgtxjecLQS8QSIFJVxcjxUEAK9rxVAMFTi3Cpy6AQCBt/D6Ye9E2LVYMPDfDNq1ChCcD7mL8QT4Ij9pUuXtHJlBALD7jstAIKv3y7LCA8SwAAI2L8gHApH52E/i3RSChDisrEIiC4jFRxlAAX53X78+BHpWNjKpwwgnLWxuhtYj8FEjgxVCBVWSVjhnT17lhARq4qUADR16lTCppMBwp6IOkUCPx0mcj65U6FChXwLDBUgSQcIG0sGCP+ERVl1j+EBOHbsmIlP5K+bM2cO/4qUv6UBBJMLYuB4UPA3ltJr166VImwoldy9e5eQxMLKr2yHohSAYD22BmJAcKzcrl27ForepL6LA1x8sD8Dy203CC+k6wDBr2IHDnwucJbpTvfu3fPLigKgZA13rgM0ePBgv2ECbm7dzPqBGgqyPTZs2NBPDljV3SZXAYJVmQ0L7Cl7DBelQCy5kZiWyYEnLBqHDh0SVYVtOa4BhFWQ1WTTpUsXWybC5UP0JKuLHAH2OCrpFrkCEMJkkYCIb21Ijhfu9ygABBws5jOQQMYGDRq4Fs/nCkAwz/DgQCDEHEQKwTHIZ8OCrG4d7hIOEI5tIFyWAYSzQDof0opto7GefsD5IUQniSahAGG/Yw3IQEBgJBIOeMFdzhoinm7sj4QCZE3hlSFDBrp//34k4uOTCRGwPECQV7S5ShhAWABYVzhIuRzJhDAu5E7gQRo9erRQkYUBhMgYntF8+fIpzeArVEsBCoN7no8aQmoBpLwRRcIAatmypQmgKVOmiOJR+3Ks3mC43EWREIBg+eVvFMFYrHOCClHKY+WsXr3a1DgRiyfqSKcQgHB8kR/ecA3Z/0RwMOI+PaYDRKqePn1aiAqEAFSzZk2DOZh3dEhQLkQ7IRQyfPhwQwcACtGuIsgxQLAQ8DnVEE8QCSadUJVrTZaLTF4i7n1wDBDuLWVdG8/u3buHKltEvI/AEj6bJGLHRdx95BggdGUeINwt978SspHwusCFu07JMUA8UwisQCTn/0qI+eYBQtZgp+QYoFKlShlM5c6dW/mpaKcKcfJ73HbMAwTPsVNyBBAiQ3FtJmMKph4RE6NToVT9HqMHf3U17n9wSo4AQkQOfzdpu3btnPIT1r/H5tzaYJ0K5Agg3BbMx1WruoDCqRJE/R4jCp9jDjlZnZIjgHC8g/csihhznQqk8vfwh/FzMk7xOTX5OALIelGTaFO7SmXHtm7e5YIk7k69rI4AQhYotkDAE4Hv/zshconpBHkflPYgBB/OnDnTd9oad3CrPKahS8N48OCBL5IWMXQicv046kFMKeEUJcp4DpenEIDCRdhw5NMDSHPUPIA8gDTXgObseT3IA0hzDWjOnteDPIA014Dm7Hk9yANIcw1ozt4/BaeT1Hrs378AAAAASUVORK5CYII=;" vertex="1" parent="M3HQzFZ4Vhxi7hrGT2tp-101">
          <mxGeometry x="89.72640000000001" y="91.88571428571423" width="22.84090909090908" height="22.84090909090908" as="geometry" />
        </mxCell>
        <mxCell id="M3HQzFZ4Vhxi7hrGT2tp-109" value="" style="endArrow=none;html=1;rounded=1;fontSize=16;fontColor=#000000;strokeColor=#6c8ebf;entryX=0.042;entryY=0.401;entryDx=0;entryDy=0;entryPerimeter=0;fillColor=#dae8fc;" edge="1" parent="M3HQzFZ4Vhxi7hrGT2tp-101" source="M3HQzFZ4Vhxi7hrGT2tp-108" target="M3HQzFZ4Vhxi7hrGT2tp-107">
          <mxGeometry width="50" height="50" relative="1" as="geometry">
            <mxPoint x="110.40068571428564" y="126.34285714285704" as="sourcePoint" />
            <mxPoint x="147.15497142857134" y="82.69714285714278" as="targetPoint" />
          </mxGeometry>
        </mxCell>
        <mxCell id="M3HQzFZ4Vhxi7hrGT2tp-110" value="" style="edgeStyle=none;rounded=1;orthogonalLoop=1;jettySize=auto;html=1;fontSize=16;fontColor=#000000;endArrow=none;endFill=0;strokeColor=default;" edge="1" parent="M3HQzFZ4Vhxi7hrGT2tp-101" source="M3HQzFZ4Vhxi7hrGT2tp-106" target="M3HQzFZ4Vhxi7hrGT2tp-108">
          <mxGeometry relative="1" as="geometry" />
        </mxCell>
        <mxCell id="M3HQzFZ4Vhxi7hrGT2tp-111" value="" style="edgeStyle=none;rounded=1;orthogonalLoop=1;jettySize=auto;html=1;fontSize=16;fontColor=#000000;endArrow=none;endFill=0;strokeColor=#b85450;entryX=0;entryY=1;entryDx=0;entryDy=0;fillColor=#f8cecc;exitX=1;exitY=0;exitDx=0;exitDy=0;" edge="1" parent="M3HQzFZ4Vhxi7hrGT2tp-101" source="M3HQzFZ4Vhxi7hrGT2tp-105" target="M3HQzFZ4Vhxi7hrGT2tp-108">
          <mxGeometry relative="1" as="geometry">
            <mxPoint x="64.1603822559615" y="75.81048884611245" as="sourcePoint" />
            <mxPoint x="60.17201632653065" y="103.46331428571426" as="targetPoint" />
          </mxGeometry>
        </mxCell>
        <mxCell id="M3HQzFZ4Vhxi7hrGT2tp-112" value="" style="ellipse;whiteSpace=wrap;html=1;aspect=fixed;shadow=0;fontSize=16;strokeColor=#6c8ebf;strokeWidth=1;fillColor=#dae8fc;align=center;sketch=0;" vertex="1" parent="M3HQzFZ4Vhxi7hrGT2tp-101">
          <mxGeometry x="134.52068571428563" y="64.31999999999995" width="18.272727272727263" height="18.272727272727263" as="geometry" />
        </mxCell>
        <mxCell id="M3HQzFZ4Vhxi7hrGT2tp-113" value="" style="edgeStyle=none;rounded=1;orthogonalLoop=1;jettySize=auto;html=1;fontSize=16;fontColor=#000000;endArrow=none;endFill=0;strokeColor=default;exitX=0.013;exitY=0.776;exitDx=0;exitDy=0;exitPerimeter=0;entryX=1;entryY=0.25;entryDx=0;entryDy=0;" edge="1" parent="M3HQzFZ4Vhxi7hrGT2tp-101" source="M3HQzFZ4Vhxi7hrGT2tp-112" target="M3HQzFZ4Vhxi7hrGT2tp-108">
          <mxGeometry relative="1" as="geometry">
            <mxPoint x="118.32701082739" y="75.71860313182682" as="sourcePoint" />
            <mxPoint x="114.33864489795916" y="103.37142857142848" as="targetPoint" />
          </mxGeometry>
        </mxCell>
        <mxCell id="M3HQzFZ4Vhxi7hrGT2tp-114" value="" style="shape=image;verticalLabelPosition=bottom;labelBackgroundColor=#ffffff;verticalAlign=top;aspect=fixed;imageAspect=0;image=data:image/png,iVBORw0KGgoAAAANSUhEUgAAAGgAAABoCAYAAAAdHLWhAAALCUlEQVR4Ae1ddcgUQRT/7O7uArsVVBRbsbu7sUXF1n8MsBsDwUDsTkzsFgO7G+zuevI7mGV2b7/77r6dnZk794Hs593ezHvvN/nemzdR5JHWGojSmjuPOfIA0rwReAB5AGmuAc3Z83qQB5DmGtCcPa8HeQBprgHN2fN6kAeQexr4+PEjPXz4kI4fP047duygNWvW0Pr162n37t105swZevbsGX3//t09BiSUHHY96Pr167R48WLq0KEDFS5cmJImTUpRUVF+/+LEiUNp0qShcuXK0cCBA2nr1q30+vVrCSoVW0VYAPThwwdatmwZ1a9fP1pA7ECyfpYnTx7q2bMnHT58WKwWXSxNa4B+//5NS5YsoeLFi/v1EKvyQ/l/3LhxqXnz5r6h0UXdCilaW4BOnDhBNWrUCAhMqlSpqFixYlStWjVq1aoV9e3bl3r16kVNmjShSpUqUYECBShhwoTRlpEgQQJfj8I8pitpCdCsWbMoceLEtorNkSMHtWnThpYvX+5bIHz69In+/Pnjp9+fP3/S+/fv6erVqzR9+nSqW7cuAVC7npY/f37av3+/Xxk6fKAVQF++fKF+/frZKhG9Yd68efT8+fNY6+3OnTs0dOhQSp06tV8d6GkzZsyIddlu/VAbgLAQqF27tp/ismfPTtOmTaO3b98K08Hly5epY8eOhLnI2qOGDRsmrB4RBWkB0OfPn6lWrVp+yqpatSrdvn1bhJy2ZaxatYqSJUvmV++ECRNs31fxoRYAderUyU9J7du3J2xE3aaDBw8Slt/WnrRgwQK3qw6qfOUAzZ492085Y8aMCYp5US89efKESpcubeIDm9xbt26JqiLW5SgF6MqVK35DDCwEKghgZMmSxQQSht2/f/+qYMeoUylAsAzwQ0vJkiUJiwVVtG/fPkqePLmJJ6wcVZIygDZt2mRSRJIkSejIkSMqdeGrGytGvtGkT5+eHj9+rIwvJQDBwgwjJq8IWAF0IOzFypYta+Jt8uTJylhTAtDOnTtNCsiYMaPSVmrVPlwX/B6paNGihK2AClICkHVZjWFFN2rUqJGpEe3du1cJi9IBgqmGXy3B7KKjsdI6R6oagqUDhJYIZxqbf6pXr66kZcZUKbyxGHoZnwULFqSvX7/G9DPh30sHCBMuExpPWK51paZNmxq8xo8fn44ePSqdVekA8fMPLMgXLlyQLnSwFS5cuNAACI0JrnbZJB2gChUqGEJjLlK5x4hJ2Xv27DF4BUAjRoyI6SfCv5cK0Ldv3yhnzpyG0BjX4VTTlRAZxM+Xbdu2lc6qVIBevXpFmTJlMgAqX768rTdUuhaiqfDGjRuUMmVKg9969epF86Z7H0sF6NGjR5QuXTpDYDjodKanT58SHIZsUQP/lGySCtCbN28oc+bMhsAI7NCZ4CJPmzatwW+dOnWksysVIARy5M2b1xC4SJEihKAPXen8+fMmk0+LFi2ksyoVIPhWeMcYhg9sCHWlAwcOGI0Jw1z//v2lsyoVIEiHgEE2pqdIkYJu3rwpXehgK0TMAuMVTxW+IekAWf0t69atC1Zf0t/r06ePARCs2ypi56QDhGGD31uocnHHhDbcC4jFYz0I+7d3797F9DPh30sH6MWLF5QtWzblgsekSXh348WLZ/CJ0GIVJB0gCNmtWzdDcLTQzZs3q5A9YJ2DBg0y8bhixYqA77v1pRKAEJzBhg484WJWYcqPTqmINkLYFeMRezcnIcfR1RPM50oAgt8fpxKYAvDUye3ArzTBW+/evYPRpSvvKAEIkixdutQEUNasWbWwbO/atcvEF/xA586dc0X5wRSqDCBYtvlNK1pqs2bNCIe2VBGOV+bKlcsEkMreAz0oAwiVb9myxaQMgDRy5Egl+KDBwLoOHtg/xGy/fPlSCT+sUqUAgYkhQ4YYCoFisCHcuHEj40/aE8H6DBjGBxYzqkk5QDCg4sgirxyYgGQta7Fg6dq1q6l+8KLLOSHlAKGFYvNqd1B43LhxrjZgzDm8C541EhyxRMPRgbQACIqA7wVnRZmS2LNx48Z08uRJobr69esXrVy50m9BgDpbt26tLIrUTkhtAAJzOAJi3R9BaYj+6dy5M128eNFOhqA/g7tj+/btVLlyZb+GgHpgHLU7kBx0BS68qBVAkA8GyR49etgqEHMTNpGLFi0K+nAVlu2nTp2iiRMnUpUqVWzLhc1t7NixLqjXeZHaAcREmj9/vinAhA157Ikj9ciPMGDAABo/frwPtA0bNvjy9cydO9encORMKFOmDCVKlMgWGJRVokQJ2rZtG6tWu6e2AEFTiJlDLBofF8AAcvrEHge+KZ1d7tCB1gAh+RHmjIoVK5p8SE7AwRw3adIkZcbPULuolgBh1YZ5CPY5J2DgtxjecLQS8QSIFJVxcjxUEAK9rxVAMFTi3Cpy6AQCBt/D6Ye9E2LVYMPDfDNq1ChCcD7mL8QT4Ij9pUuXtHJlBALD7jstAIKv3y7LCA8SwAAI2L8gHApH52E/i3RSChDisrEIiC4jFRxlAAX53X78+BHpWNjKpwwgnLWxuhtYj8FEjgxVCBVWSVjhnT17lhARq4qUADR16lTCppMBwp6IOkUCPx0mcj65U6FChXwLDBUgSQcIG0sGCP+ERVl1j+EBOHbsmIlP5K+bM2cO/4qUv6UBBJMLYuB4UPA3ltJr166VImwoldy9e5eQxMLKr2yHohSAYD22BmJAcKzcrl27ForepL6LA1x8sD8Dy203CC+k6wDBr2IHDnwucJbpTvfu3fPLigKgZA13rgM0ePBgv2ECbm7dzPqBGgqyPTZs2NBPDljV3SZXAYJVmQ0L7Cl7DBelQCy5kZiWyYEnLBqHDh0SVYVtOa4BhFWQ1WTTpUsXWybC5UP0JKuLHAH2OCrpFrkCEMJkkYCIb21Ijhfu9ygABBws5jOQQMYGDRq4Fs/nCkAwz/DgQCDEHEQKwTHIZ8OCrG4d7hIOEI5tIFyWAYSzQDof0opto7GefsD5IUQniSahAGG/Yw3IQEBgJBIOeMFdzhoinm7sj4QCZE3hlSFDBrp//34k4uOTCRGwPECQV7S5ShhAWABYVzhIuRzJhDAu5E7gQRo9erRQkYUBhMgYntF8+fIpzeArVEsBCoN7no8aQmoBpLwRRcIAatmypQmgKVOmiOJR+3Ks3mC43EWREIBg+eVvFMFYrHOCClHKY+WsXr3a1DgRiyfqSKcQgHB8kR/ecA3Z/0RwMOI+PaYDRKqePn1aiAqEAFSzZk2DOZh3dEhQLkQ7IRQyfPhwQwcACtGuIsgxQLAQ8DnVEE8QCSadUJVrTZaLTF4i7n1wDBDuLWVdG8/u3buHKltEvI/AEj6bJGLHRdx95BggdGUeINwt978SspHwusCFu07JMUA8UwisQCTn/0qI+eYBQtZgp+QYoFKlShlM5c6dW/mpaKcKcfJ73HbMAwTPsVNyBBAiQ3FtJmMKph4RE6NToVT9HqMHf3U17n9wSo4AQkQOfzdpu3btnPIT1r/H5tzaYJ0K5Agg3BbMx1WruoDCqRJE/R4jCp9jDjlZnZIjgHC8g/csihhznQqk8vfwh/FzMk7xOTX5OALIelGTaFO7SmXHtm7e5YIk7k69rI4AQhYotkDAE4Hv/zshconpBHkflPYgBB/OnDnTd9oad3CrPKahS8N48OCBL5IWMXQicv046kFMKeEUJcp4DpenEIDCRdhw5NMDSHPUPIA8gDTXgObseT3IA0hzDWjOnteDPIA014Dm7Hk9yANIcw1ozt4/BaeT1Hrs378AAAAASUVORK5CYII=;" vertex="1" parent="M3HQzFZ4Vhxi7hrGT2tp-101">
          <mxGeometry x="166.54285714285712" y="34.45714285714285" width="22.84090909090908" height="22.84090909090908" as="geometry" />
        </mxCell>
        <mxCell id="M3HQzFZ4Vhxi7hrGT2tp-115" value="" style="edgeStyle=none;rounded=1;orthogonalLoop=1;jettySize=auto;html=1;fontSize=16;fontColor=#000000;endArrow=none;endFill=0;strokeColor=default;exitX=0;exitY=1;exitDx=0;exitDy=0;entryX=1;entryY=0;entryDx=0;entryDy=0;" edge="1" parent="M3HQzFZ4Vhxi7hrGT2tp-101" source="M3HQzFZ4Vhxi7hrGT2tp-114" target="M3HQzFZ4Vhxi7hrGT2tp-112">
          <mxGeometry relative="1" as="geometry">
            <mxPoint x="174.95958857142853" y="51.681119999999794" as="sourcePoint" />
            <mxPoint x="152.89782857142845" y="70.72902857142849" as="targetPoint" />
          </mxGeometry>
        </mxCell>
        <mxCell id="M3HQzFZ4Vhxi7hrGT2tp-116" value="" style="shape=image;verticalLabelPosition=bottom;labelBackgroundColor=#ffffff;verticalAlign=top;aspect=fixed;imageAspect=0;image=data:image/png,iVBORw0KGgoAAAANSUhEUgAAAGgAAABoCAYAAAAdHLWhAAALCUlEQVR4Ae1ddcgUQRT/7O7uArsVVBRbsbu7sUXF1n8MsBsDwUDsTkzsFgO7G+zuevI7mGV2b7/77r6dnZk794Hs593ezHvvN/nemzdR5JHWGojSmjuPOfIA0rwReAB5AGmuAc3Z83qQB5DmGtCcPa8HeQBprgHN2fN6kAeQexr4+PEjPXz4kI4fP047duygNWvW0Pr162n37t105swZevbsGX3//t09BiSUHHY96Pr167R48WLq0KEDFS5cmJImTUpRUVF+/+LEiUNp0qShcuXK0cCBA2nr1q30+vVrCSoVW0VYAPThwwdatmwZ1a9fP1pA7ECyfpYnTx7q2bMnHT58WKwWXSxNa4B+//5NS5YsoeLFi/v1EKvyQ/l/3LhxqXnz5r6h0UXdCilaW4BOnDhBNWrUCAhMqlSpqFixYlStWjVq1aoV9e3bl3r16kVNmjShSpUqUYECBShhwoTRlpEgQQJfj8I8pitpCdCsWbMoceLEtorNkSMHtWnThpYvX+5bIHz69In+/Pnjp9+fP3/S+/fv6erVqzR9+nSqW7cuAVC7npY/f37av3+/Xxk6fKAVQF++fKF+/frZKhG9Yd68efT8+fNY6+3OnTs0dOhQSp06tV8d6GkzZsyIddlu/VAbgLAQqF27tp/ismfPTtOmTaO3b98K08Hly5epY8eOhLnI2qOGDRsmrB4RBWkB0OfPn6lWrVp+yqpatSrdvn1bhJy2ZaxatYqSJUvmV++ECRNs31fxoRYAderUyU9J7du3J2xE3aaDBw8Slt/WnrRgwQK3qw6qfOUAzZ492085Y8aMCYp5US89efKESpcubeIDm9xbt26JqiLW5SgF6MqVK35DDCwEKghgZMmSxQQSht2/f/+qYMeoUylAsAzwQ0vJkiUJiwVVtG/fPkqePLmJJ6wcVZIygDZt2mRSRJIkSejIkSMqdeGrGytGvtGkT5+eHj9+rIwvJQDBwgwjJq8IWAF0IOzFypYta+Jt8uTJylhTAtDOnTtNCsiYMaPSVmrVPlwX/B6paNGihK2AClICkHVZjWFFN2rUqJGpEe3du1cJi9IBgqmGXy3B7KKjsdI6R6oagqUDhJYIZxqbf6pXr66kZcZUKbyxGHoZnwULFqSvX7/G9DPh30sHCBMuExpPWK51paZNmxq8xo8fn44ePSqdVekA8fMPLMgXLlyQLnSwFS5cuNAACI0JrnbZJB2gChUqGEJjLlK5x4hJ2Xv27DF4BUAjRoyI6SfCv5cK0Ldv3yhnzpyG0BjX4VTTlRAZxM+Xbdu2lc6qVIBevXpFmTJlMgAqX768rTdUuhaiqfDGjRuUMmVKg9969epF86Z7H0sF6NGjR5QuXTpDYDjodKanT58SHIZsUQP/lGySCtCbN28oc+bMhsAI7NCZ4CJPmzatwW+dOnWksysVIARy5M2b1xC4SJEihKAPXen8+fMmk0+LFi2ksyoVIPhWeMcYhg9sCHWlAwcOGI0Jw1z//v2lsyoVIEiHgEE2pqdIkYJu3rwpXehgK0TMAuMVTxW+IekAWf0t69atC1Zf0t/r06ePARCs2ypi56QDhGGD31uocnHHhDbcC4jFYz0I+7d3797F9DPh30sH6MWLF5QtWzblgsekSXh348WLZ/CJ0GIVJB0gCNmtWzdDcLTQzZs3q5A9YJ2DBg0y8bhixYqA77v1pRKAEJzBhg484WJWYcqPTqmINkLYFeMRezcnIcfR1RPM50oAgt8fpxKYAvDUye3ArzTBW+/evYPRpSvvKAEIkixdutQEUNasWbWwbO/atcvEF/xA586dc0X5wRSqDCBYtvlNK1pqs2bNCIe2VBGOV+bKlcsEkMreAz0oAwiVb9myxaQMgDRy5Egl+KDBwLoOHtg/xGy/fPlSCT+sUqUAgYkhQ4YYCoFisCHcuHEj40/aE8H6DBjGBxYzqkk5QDCg4sgirxyYgGQta7Fg6dq1q6l+8KLLOSHlAKGFYvNqd1B43LhxrjZgzDm8C541EhyxRMPRgbQACIqA7wVnRZmS2LNx48Z08uRJobr69esXrVy50m9BgDpbt26tLIrUTkhtAAJzOAJi3R9BaYj+6dy5M128eNFOhqA/g7tj+/btVLlyZb+GgHpgHLU7kBx0BS68qBVAkA8GyR49etgqEHMTNpGLFi0K+nAVlu2nTp2iiRMnUpUqVWzLhc1t7NixLqjXeZHaAcREmj9/vinAhA157Ikj9ciPMGDAABo/frwPtA0bNvjy9cydO9encORMKFOmDCVKlMgWGJRVokQJ2rZtG6tWu6e2AEFTiJlDLBofF8AAcvrEHge+KZ1d7tCB1gAh+RHmjIoVK5p8SE7AwRw3adIkZcbPULuolgBh1YZ5CPY5J2DgtxjecLQS8QSIFJVxcjxUEAK9rxVAMFTi3Cpy6AQCBt/D6Ye9E2LVYMPDfDNq1ChCcD7mL8QT4Ij9pUuXtHJlBALD7jstAIKv3y7LCA8SwAAI2L8gHApH52E/i3RSChDisrEIiC4jFRxlAAX53X78+BHpWNjKpwwgnLWxuhtYj8FEjgxVCBVWSVjhnT17lhARq4qUADR16lTCppMBwp6IOkUCPx0mcj65U6FChXwLDBUgSQcIG0sGCP+ERVl1j+EBOHbsmIlP5K+bM2cO/4qUv6UBBJMLYuB4UPA3ltJr166VImwoldy9e5eQxMLKr2yHohSAYD22BmJAcKzcrl27ForepL6LA1x8sD8Dy203CC+k6wDBr2IHDnwucJbpTvfu3fPLigKgZA13rgM0ePBgv2ECbm7dzPqBGgqyPTZs2NBPDljV3SZXAYJVmQ0L7Cl7DBelQCy5kZiWyYEnLBqHDh0SVYVtOa4BhFWQ1WTTpUsXWybC5UP0JKuLHAH2OCrpFrkCEMJkkYCIb21Ijhfu9ygABBws5jOQQMYGDRq4Fs/nCkAwz/DgQCDEHEQKwTHIZ8OCrG4d7hIOEI5tIFyWAYSzQDof0opto7GefsD5IUQniSahAGG/Yw3IQEBgJBIOeMFdzhoinm7sj4QCZE3hlSFDBrp//34k4uOTCRGwPECQV7S5ShhAWABYVzhIuRzJhDAu5E7gQRo9erRQkYUBhMgYntF8+fIpzeArVEsBCoN7no8aQmoBpLwRRcIAatmypQmgKVOmiOJR+3Ks3mC43EWREIBg+eVvFMFYrHOCClHKY+WsXr3a1DgRiyfqSKcQgHB8kR/ecA3Z/0RwMOI+PaYDRKqePn1aiAqEAFSzZk2DOZh3dEhQLkQ7IRQyfPhwQwcACtGuIsgxQLAQ8DnVEE8QCSadUJVrTZaLTF4i7n1wDBDuLWVdG8/u3buHKltEvI/AEj6bJGLHRdx95BggdGUeINwt978SspHwusCFu07JMUA8UwisQCTn/0qI+eYBQtZgp+QYoFKlShlM5c6dW/mpaKcKcfJ73HbMAwTPsVNyBBAiQ3FtJmMKph4RE6NToVT9HqMHf3U17n9wSo4AQkQOfzdpu3btnPIT1r/H5tzaYJ0K5Agg3BbMx1WruoDCqRJE/R4jCp9jDjlZnZIjgHC8g/csihhznQqk8vfwh/FzMk7xOTX5OALIelGTaFO7SmXHtm7e5YIk7k69rI4AQhYotkDAE4Hv/zshconpBHkflPYgBB/OnDnTd9oad3CrPKahS8N48OCBL5IWMXQicv046kFMKeEUJcp4DpenEIDCRdhw5NMDSHPUPIA8gDTXgObseT3IA0hzDWjOnteDPIA014Dm7Hk9yANIcw1ozt4/BaeT1Hrs378AAAAASUVORK5CYII=;" vertex="1" parent="M3HQzFZ4Vhxi7hrGT2tp-101">
          <mxGeometry x="178.02857142857133" y="80.39999999999998" width="22.84090909090908" height="22.84090909090908" as="geometry" />
        </mxCell>
        <mxCell id="M3HQzFZ4Vhxi7hrGT2tp-117" value="" style="shape=image;verticalLabelPosition=bottom;labelBackgroundColor=#ffffff;verticalAlign=top;aspect=fixed;imageAspect=0;image=data:image/png,iVBORw0KGgoAAAANSUhEUgAAAGgAAABoCAYAAAAdHLWhAAALCUlEQVR4Ae1ddcgUQRT/7O7uArsVVBRbsbu7sUXF1n8MsBsDwUDsTkzsFgO7G+zuevI7mGV2b7/77r6dnZk794Hs593ezHvvN/nemzdR5JHWGojSmjuPOfIA0rwReAB5AGmuAc3Z83qQB5DmGtCcPa8HeQBprgHN2fN6kAeQexr4+PEjPXz4kI4fP047duygNWvW0Pr162n37t105swZevbsGX3//t09BiSUHHY96Pr167R48WLq0KEDFS5cmJImTUpRUVF+/+LEiUNp0qShcuXK0cCBA2nr1q30+vVrCSoVW0VYAPThwwdatmwZ1a9fP1pA7ECyfpYnTx7q2bMnHT58WKwWXSxNa4B+//5NS5YsoeLFi/v1EKvyQ/l/3LhxqXnz5r6h0UXdCilaW4BOnDhBNWrUCAhMqlSpqFixYlStWjVq1aoV9e3bl3r16kVNmjShSpUqUYECBShhwoTRlpEgQQJfj8I8pitpCdCsWbMoceLEtorNkSMHtWnThpYvX+5bIHz69In+/Pnjp9+fP3/S+/fv6erVqzR9+nSqW7cuAVC7npY/f37av3+/Xxk6fKAVQF++fKF+/frZKhG9Yd68efT8+fNY6+3OnTs0dOhQSp06tV8d6GkzZsyIddlu/VAbgLAQqF27tp/ismfPTtOmTaO3b98K08Hly5epY8eOhLnI2qOGDRsmrB4RBWkB0OfPn6lWrVp+yqpatSrdvn1bhJy2ZaxatYqSJUvmV++ECRNs31fxoRYAderUyU9J7du3J2xE3aaDBw8Slt/WnrRgwQK3qw6qfOUAzZ492085Y8aMCYp5US89efKESpcubeIDm9xbt26JqiLW5SgF6MqVK35DDCwEKghgZMmSxQQSht2/f/+qYMeoUylAsAzwQ0vJkiUJiwVVtG/fPkqePLmJJ6wcVZIygDZt2mRSRJIkSejIkSMqdeGrGytGvtGkT5+eHj9+rIwvJQDBwgwjJq8IWAF0IOzFypYta+Jt8uTJylhTAtDOnTtNCsiYMaPSVmrVPlwX/B6paNGihK2AClICkHVZjWFFN2rUqJGpEe3du1cJi9IBgqmGXy3B7KKjsdI6R6oagqUDhJYIZxqbf6pXr66kZcZUKbyxGHoZnwULFqSvX7/G9DPh30sHCBMuExpPWK51paZNmxq8xo8fn44ePSqdVekA8fMPLMgXLlyQLnSwFS5cuNAACI0JrnbZJB2gChUqGEJjLlK5x4hJ2Xv27DF4BUAjRoyI6SfCv5cK0Ldv3yhnzpyG0BjX4VTTlRAZxM+Xbdu2lc6qVIBevXpFmTJlMgAqX768rTdUuhaiqfDGjRuUMmVKg9969epF86Z7H0sF6NGjR5QuXTpDYDjodKanT58SHIZsUQP/lGySCtCbN28oc+bMhsAI7NCZ4CJPmzatwW+dOnWksysVIARy5M2b1xC4SJEihKAPXen8+fMmk0+LFi2ksyoVIPhWeMcYhg9sCHWlAwcOGI0Jw1z//v2lsyoVIEiHgEE2pqdIkYJu3rwpXehgK0TMAuMVTxW+IekAWf0t69atC1Zf0t/r06ePARCs2ypi56QDhGGD31uocnHHhDbcC4jFYz0I+7d3797F9DPh30sH6MWLF5QtWzblgsekSXh348WLZ/CJ0GIVJB0gCNmtWzdDcLTQzZs3q5A9YJ2DBg0y8bhixYqA77v1pRKAEJzBhg484WJWYcqPTqmINkLYFeMRezcnIcfR1RPM50oAgt8fpxKYAvDUye3ArzTBW+/evYPRpSvvKAEIkixdutQEUNasWbWwbO/atcvEF/xA586dc0X5wRSqDCBYtvlNK1pqs2bNCIe2VBGOV+bKlcsEkMreAz0oAwiVb9myxaQMgDRy5Egl+KDBwLoOHtg/xGy/fPlSCT+sUqUAgYkhQ4YYCoFisCHcuHEj40/aE8H6DBjGBxYzqkk5QDCg4sgirxyYgGQta7Fg6dq1q6l+8KLLOSHlAKGFYvNqd1B43LhxrjZgzDm8C541EhyxRMPRgbQACIqA7wVnRZmS2LNx48Z08uRJobr69esXrVy50m9BgDpbt26tLIrUTkhtAAJzOAJi3R9BaYj+6dy5M128eNFOhqA/g7tj+/btVLlyZb+GgHpgHLU7kBx0BS68qBVAkA8GyR49etgqEHMTNpGLFi0K+nAVlu2nTp2iiRMnUpUqVWzLhc1t7NixLqjXeZHaAcREmj9/vinAhA157Ikj9ciPMGDAABo/frwPtA0bNvjy9cydO9encORMKFOmDCVKlMgWGJRVokQJ2rZtG6tWu6e2AEFTiJlDLBofF8AAcvrEHge+KZ1d7tCB1gAh+RHmjIoVK5p8SE7AwRw3adIkZcbPULuolgBh1YZ5CPY5J2DgtxjecLQS8QSIFJVxcjxUEAK9rxVAMFTi3Cpy6AQCBt/D6Ye9E2LVYMPDfDNq1ChCcD7mL8QT4Ij9pUuXtHJlBALD7jstAIKv3y7LCA8SwAAI2L8gHApH52E/i3RSChDisrEIiC4jFRxlAAX53X78+BHpWNjKpwwgnLWxuhtYj8FEjgxVCBVWSVjhnT17lhARq4qUADR16lTCppMBwp6IOkUCPx0mcj65U6FChXwLDBUgSQcIG0sGCP+ERVl1j+EBOHbsmIlP5K+bM2cO/4qUv6UBBJMLYuB4UPA3ltJr166VImwoldy9e5eQxMLKr2yHohSAYD22BmJAcKzcrl27ForepL6LA1x8sD8Dy203CC+k6wDBr2IHDnwucJbpTvfu3fPLigKgZA13rgM0ePBgv2ECbm7dzPqBGgqyPTZs2NBPDljV3SZXAYJVmQ0L7Cl7DBelQCy5kZiWyYEnLBqHDh0SVYVtOa4BhFWQ1WTTpUsXWybC5UP0JKuLHAH2OCrpFrkCEMJkkYCIb21Ijhfu9ygABBws5jOQQMYGDRq4Fs/nCkAwz/DgQCDEHEQKwTHIZ8OCrG4d7hIOEI5tIFyWAYSzQDof0opto7GefsD5IUQniSahAGG/Yw3IQEBgJBIOeMFdzhoinm7sj4QCZE3hlSFDBrp//34k4uOTCRGwPECQV7S5ShhAWABYVzhIuRzJhDAu5E7gQRo9erRQkYUBhMgYntF8+fIpzeArVEsBCoN7no8aQmoBpLwRRcIAatmypQmgKVOmiOJR+3Ks3mC43EWREIBg+eVvFMFYrHOCClHKY+WsXr3a1DgRiyfqSKcQgHB8kR/ecA3Z/0RwMOI+PaYDRKqePn1aiAqEAFSzZk2DOZh3dEhQLkQ7IRQyfPhwQwcACtGuIsgxQLAQ8DnVEE8QCSadUJVrTZaLTF4i7n1wDBDuLWVdG8/u3buHKltEvI/AEj6bJGLHRdx95BggdGUeINwt978SspHwusCFu07JMUA8UwisQCTn/0qI+eYBQtZgp+QYoFKlShlM5c6dW/mpaKcKcfJ73HbMAwTPsVNyBBAiQ3FtJmMKph4RE6NToVT9HqMHf3U17n9wSo4AQkQOfzdpu3btnPIT1r/H5tzaYJ0K5Agg3BbMx1WruoDCqRJE/R4jCp9jDjlZnZIjgHC8g/csihhznQqk8vfwh/FzMk7xOTX5OALIelGTaFO7SmXHtm7e5YIk7k69rI4AQhYotkDAE4Hv/zshconpBHkflPYgBB/OnDnTd9oad3CrPKahS8N48OCBL5IWMXQicv046kFMKeEUJcp4DpenEIDCRdhw5NMDSHPUPIA8gDTXgObseT3IA0hzDWjOnteDPIA014Dm7Hk9yANIcw1ozt4/BaeT1Hrs378AAAAASUVORK5CYII=;" vertex="1" parent="M3HQzFZ4Vhxi7hrGT2tp-101">
          <mxGeometry x="166.54285714285712" y="128.6399999999999" width="22.84090909090908" height="22.84090909090908" as="geometry" />
        </mxCell>
        <mxCell id="M3HQzFZ4Vhxi7hrGT2tp-118" value="" style="endArrow=none;html=1;rounded=1;fontSize=16;fontColor=#000000;strokeColor=#6c8ebf;entryX=0;entryY=0.5;entryDx=0;entryDy=0;fillColor=#dae8fc;" edge="1" parent="M3HQzFZ4Vhxi7hrGT2tp-101" target="M3HQzFZ4Vhxi7hrGT2tp-116">
          <mxGeometry width="50" height="50" relative="1" as="geometry">
            <mxPoint x="152.89782857142845" y="76.33470125948467" as="sourcePoint" />
            <mxPoint x="175.49252571428565" y="91.8811199999999" as="targetPoint" />
          </mxGeometry>
        </mxCell>
        <mxCell id="M3HQzFZ4Vhxi7hrGT2tp-119" value="" style="edgeStyle=none;rounded=1;orthogonalLoop=1;jettySize=auto;html=1;fontSize=16;fontColor=#000000;endArrow=none;endFill=0;strokeColor=#b85450;entryX=0.056;entryY=0.4;entryDx=0;entryDy=0;fillColor=#f8cecc;exitX=1;exitY=0;exitDx=0;exitDy=0;entryPerimeter=0;" edge="1" parent="M3HQzFZ4Vhxi7hrGT2tp-101" target="M3HQzFZ4Vhxi7hrGT2tp-117">
          <mxGeometry relative="1" as="geometry">
            <mxPoint x="152.8942154522742" y="132.28458454772542" as="sourcePoint" />
            <mxPoint x="177.40834285714283" y="124.99902857142854" as="targetPoint" />
          </mxGeometry>
        </mxCell>
        <mxCell id="M3HQzFZ4Vhxi7hrGT2tp-120" value="" style="edgeStyle=none;rounded=1;orthogonalLoop=1;jettySize=auto;html=1;fontSize=16;fontColor=#000000;endArrow=none;endFill=0;strokeColor=default;entryX=1;entryY=0;entryDx=0;entryDy=0;" edge="1" parent="M3HQzFZ4Vhxi7hrGT2tp-101" source="M3HQzFZ4Vhxi7hrGT2tp-116">
          <mxGeometry relative="1" as="geometry">
            <mxPoint x="169.23051428571426" y="114.85714285714282" as="sourcePoint" />
            <mxPoint x="152.89421545225906" y="126.73698454774093" as="targetPoint" />
          </mxGeometry>
        </mxCell>
        <mxCell id="M3HQzFZ4Vhxi7hrGT2tp-121" value="" style="shape=image;verticalLabelPosition=bottom;labelBackgroundColor=#ffffff;verticalAlign=top;aspect=fixed;imageAspect=0;image=data:image/png,iVBORw0KGgoAAAANSUhEUgAAAGgAAABoCAYAAAAdHLWhAAALCUlEQVR4Ae1ddcgUQRT/7O7uArsVVBRbsbu7sUXF1n8MsBsDwUDsTkzsFgO7G+zuevI7mGV2b7/77r6dnZk794Hs593ezHvvN/nemzdR5JHWGojSmjuPOfIA0rwReAB5AGmuAc3Z83qQB5DmGtCcPa8HeQBprgHN2fN6kAeQexr4+PEjPXz4kI4fP047duygNWvW0Pr162n37t105swZevbsGX3//t09BiSUHHY96Pr167R48WLq0KEDFS5cmJImTUpRUVF+/+LEiUNp0qShcuXK0cCBA2nr1q30+vVrCSoVW0VYAPThwwdatmwZ1a9fP1pA7ECyfpYnTx7q2bMnHT58WKwWXSxNa4B+//5NS5YsoeLFi/v1EKvyQ/l/3LhxqXnz5r6h0UXdCilaW4BOnDhBNWrUCAhMqlSpqFixYlStWjVq1aoV9e3bl3r16kVNmjShSpUqUYECBShhwoTRlpEgQQJfj8I8pitpCdCsWbMoceLEtorNkSMHtWnThpYvX+5bIHz69In+/Pnjp9+fP3/S+/fv6erVqzR9+nSqW7cuAVC7npY/f37av3+/Xxk6fKAVQF++fKF+/frZKhG9Yd68efT8+fNY6+3OnTs0dOhQSp06tV8d6GkzZsyIddlu/VAbgLAQqF27tp/ismfPTtOmTaO3b98K08Hly5epY8eOhLnI2qOGDRsmrB4RBWkB0OfPn6lWrVp+yqpatSrdvn1bhJy2ZaxatYqSJUvmV++ECRNs31fxoRYAderUyU9J7du3J2xE3aaDBw8Slt/WnrRgwQK3qw6qfOUAzZ492085Y8aMCYp5US89efKESpcubeIDm9xbt26JqiLW5SgF6MqVK35DDCwEKghgZMmSxQQSht2/f/+qYMeoUylAsAzwQ0vJkiUJiwVVtG/fPkqePLmJJ6wcVZIygDZt2mRSRJIkSejIkSMqdeGrGytGvtGkT5+eHj9+rIwvJQDBwgwjJq8IWAF0IOzFypYta+Jt8uTJylhTAtDOnTtNCsiYMaPSVmrVPlwX/B6paNGihK2AClICkHVZjWFFN2rUqJGpEe3du1cJi9IBgqmGXy3B7KKjsdI6R6oagqUDhJYIZxqbf6pXr66kZcZUKbyxGHoZnwULFqSvX7/G9DPh30sHCBMuExpPWK51paZNmxq8xo8fn44ePSqdVekA8fMPLMgXLlyQLnSwFS5cuNAACI0JrnbZJB2gChUqGEJjLlK5x4hJ2Xv27DF4BUAjRoyI6SfCv5cK0Ldv3yhnzpyG0BjX4VTTlRAZxM+Xbdu2lc6qVIBevXpFmTJlMgAqX768rTdUuhaiqfDGjRuUMmVKg9969epF86Z7H0sF6NGjR5QuXTpDYDjodKanT58SHIZsUQP/lGySCtCbN28oc+bMhsAI7NCZ4CJPmzatwW+dOnWksysVIARy5M2b1xC4SJEihKAPXen8+fMmk0+LFi2ksyoVIPhWeMcYhg9sCHWlAwcOGI0Jw1z//v2lsyoVIEiHgEE2pqdIkYJu3rwpXehgK0TMAuMVTxW+IekAWf0t69atC1Zf0t/r06ePARCs2ypi56QDhGGD31uocnHHhDbcC4jFYz0I+7d3797F9DPh30sH6MWLF5QtWzblgsekSXh348WLZ/CJ0GIVJB0gCNmtWzdDcLTQzZs3q5A9YJ2DBg0y8bhixYqA77v1pRKAEJzBhg484WJWYcqPTqmINkLYFeMRezcnIcfR1RPM50oAgt8fpxKYAvDUye3ArzTBW+/evYPRpSvvKAEIkixdutQEUNasWbWwbO/atcvEF/xA586dc0X5wRSqDCBYtvlNK1pqs2bNCIe2VBGOV+bKlcsEkMreAz0oAwiVb9myxaQMgDRy5Egl+KDBwLoOHtg/xGy/fPlSCT+sUqUAgYkhQ4YYCoFisCHcuHEj40/aE8H6DBjGBxYzqkk5QDCg4sgirxyYgGQta7Fg6dq1q6l+8KLLOSHlAKGFYvNqd1B43LhxrjZgzDm8C541EhyxRMPRgbQACIqA7wVnRZmS2LNx48Z08uRJobr69esXrVy50m9BgDpbt26tLIrUTkhtAAJzOAJi3R9BaYj+6dy5M128eNFOhqA/g7tj+/btVLlyZb+GgHpgHLU7kBx0BS68qBVAkA8GyR49etgqEHMTNpGLFi0K+nAVlu2nTp2iiRMnUpUqVWzLhc1t7NixLqjXeZHaAcREmj9/vinAhA157Ikj9ciPMGDAABo/frwPtA0bNvjy9cydO9encORMKFOmDCVKlMgWGJRVokQJ2rZtG6tWu6e2AEFTiJlDLBofF8AAcvrEHge+KZ1d7tCB1gAh+RHmjIoVK5p8SE7AwRw3adIkZcbPULuolgBh1YZ5CPY5J2DgtxjecLQS8QSIFJVxcjxUEAK9rxVAMFTi3Cpy6AQCBt/D6Ye9E2LVYMPDfDNq1ChCcD7mL8QT4Ij9pUuXtHJlBALD7jstAIKv3y7LCA8SwAAI2L8gHApH52E/i3RSChDisrEIiC4jFRxlAAX53X78+BHpWNjKpwwgnLWxuhtYj8FEjgxVCBVWSVjhnT17lhARq4qUADR16lTCppMBwp6IOkUCPx0mcj65U6FChXwLDBUgSQcIG0sGCP+ERVl1j+EBOHbsmIlP5K+bM2cO/4qUv6UBBJMLYuB4UPA3ltJr166VImwoldy9e5eQxMLKr2yHohSAYD22BmJAcKzcrl27ForepL6LA1x8sD8Dy203CC+k6wDBr2IHDnwucJbpTvfu3fPLigKgZA13rgM0ePBgv2ECbm7dzPqBGgqyPTZs2NBPDljV3SZXAYJVmQ0L7Cl7DBelQCy5kZiWyYEnLBqHDh0SVYVtOa4BhFWQ1WTTpUsXWybC5UP0JKuLHAH2OCrpFrkCEMJkkYCIb21Ijhfu9ygABBws5jOQQMYGDRq4Fs/nCkAwz/DgQCDEHEQKwTHIZ8OCrG4d7hIOEI5tIFyWAYSzQDof0opto7GefsD5IUQniSahAGG/Yw3IQEBgJBIOeMFdzhoinm7sj4QCZE3hlSFDBrp//34k4uOTCRGwPECQV7S5ShhAWABYVzhIuRzJhDAu5E7gQRo9erRQkYUBhMgYntF8+fIpzeArVEsBCoN7no8aQmoBpLwRRcIAatmypQmgKVOmiOJR+3Ks3mC43EWREIBg+eVvFMFYrHOCClHKY+WsXr3a1DgRiyfqSKcQgHB8kR/ecA3Z/0RwMOI+PaYDRKqePn1aiAqEAFSzZk2DOZh3dEhQLkQ7IRQyfPhwQwcACtGuIsgxQLAQ8DnVEE8QCSadUJVrTZaLTF4i7n1wDBDuLWVdG8/u3buHKltEvI/AEj6bJGLHRdx95BggdGUeINwt978SspHwusCFu07JMUA8UwisQCTn/0qI+eYBQtZgp+QYoFKlShlM5c6dW/mpaKcKcfJ73HbMAwTPsVNyBBAiQ3FtJmMKph4RE6NToVT9HqMHf3U17n9wSo4AQkQOfzdpu3btnPIT1r/H5tzaYJ0K5Agg3BbMx1WruoDCqRJE/R4jCp9jDjlZnZIjgHC8g/csihhznQqk8vfwh/FzMk7xOTX5OALIelGTaFO7SmXHtm7e5YIk7k69rI4AQhYotkDAE4Hv/zshconpBHkflPYgBB/OnDnTd9oad3CrPKahS8N48OCBL5IWMXQicv046kFMKeEUJcp4DpenEIDCRdhw5NMDSHPUPIA8gDTXgObseT3IA0hzDWjOnteDPIA014Dm7Hk9yANIcw1ozt4/BaeT1Hrs378AAAAASUVORK5CYII=;" vertex="1" parent="M3HQzFZ4Vhxi7hrGT2tp-101">
          <mxGeometry x="89.73788571428567" y="178.02857142857133" width="22.84090909090908" height="22.84090909090908" as="geometry" />
        </mxCell>
        <mxCell id="M3HQzFZ4Vhxi7hrGT2tp-122" value="" style="shape=image;verticalLabelPosition=bottom;labelBackgroundColor=#ffffff;verticalAlign=top;aspect=fixed;imageAspect=0;image=data:image/png,iVBORw0KGgoAAAANSUhEUgAAAGgAAABoCAYAAAAdHLWhAAALCUlEQVR4Ae1ddcgUQRT/7O7uArsVVBRbsbu7sUXF1n8MsBsDwUDsTkzsFgO7G+zuevI7mGV2b7/77r6dnZk794Hs593ezHvvN/nemzdR5JHWGojSmjuPOfIA0rwReAB5AGmuAc3Z83qQB5DmGtCcPa8HeQBprgHN2fN6kAeQexr4+PEjPXz4kI4fP047duygNWvW0Pr162n37t105swZevbsGX3//t09BiSUHHY96Pr167R48WLq0KEDFS5cmJImTUpRUVF+/+LEiUNp0qShcuXK0cCBA2nr1q30+vVrCSoVW0VYAPThwwdatmwZ1a9fP1pA7ECyfpYnTx7q2bMnHT58WKwWXSxNa4B+//5NS5YsoeLFi/v1EKvyQ/l/3LhxqXnz5r6h0UXdCilaW4BOnDhBNWrUCAhMqlSpqFixYlStWjVq1aoV9e3bl3r16kVNmjShSpUqUYECBShhwoTRlpEgQQJfj8I8pitpCdCsWbMoceLEtorNkSMHtWnThpYvX+5bIHz69In+/Pnjp9+fP3/S+/fv6erVqzR9+nSqW7cuAVC7npY/f37av3+/Xxk6fKAVQF++fKF+/frZKhG9Yd68efT8+fNY6+3OnTs0dOhQSp06tV8d6GkzZsyIddlu/VAbgLAQqF27tp/ismfPTtOmTaO3b98K08Hly5epY8eOhLnI2qOGDRsmrB4RBWkB0OfPn6lWrVp+yqpatSrdvn1bhJy2ZaxatYqSJUvmV++ECRNs31fxoRYAderUyU9J7du3J2xE3aaDBw8Slt/WnrRgwQK3qw6qfOUAzZ492085Y8aMCYp5US89efKESpcubeIDm9xbt26JqiLW5SgF6MqVK35DDCwEKghgZMmSxQQSht2/f/+qYMeoUylAsAzwQ0vJkiUJiwVVtG/fPkqePLmJJ6wcVZIygDZt2mRSRJIkSejIkSMqdeGrGytGvtGkT5+eHj9+rIwvJQDBwgwjJq8IWAF0IOzFypYta+Jt8uTJylhTAtDOnTtNCsiYMaPSVmrVPlwX/B6paNGihK2AClICkHVZjWFFN2rUqJGpEe3du1cJi9IBgqmGXy3B7KKjsdI6R6oagqUDhJYIZxqbf6pXr66kZcZUKbyxGHoZnwULFqSvX7/G9DPh30sHCBMuExpPWK51paZNmxq8xo8fn44ePSqdVekA8fMPLMgXLlyQLnSwFS5cuNAACI0JrnbZJB2gChUqGEJjLlK5x4hJ2Xv27DF4BUAjRoyI6SfCv5cK0Ldv3yhnzpyG0BjX4VTTlRAZxM+Xbdu2lc6qVIBevXpFmTJlMgAqX768rTdUuhaiqfDGjRuUMmVKg9969epF86Z7H0sF6NGjR5QuXTpDYDjodKanT58SHIZsUQP/lGySCtCbN28oc+bMhsAI7NCZ4CJPmzatwW+dOnWksysVIARy5M2b1xC4SJEihKAPXen8+fMmk0+LFi2ksyoVIPhWeMcYhg9sCHWlAwcOGI0Jw1z//v2lsyoVIEiHgEE2pqdIkYJu3rwpXehgK0TMAuMVTxW+IekAWf0t69atC1Zf0t/r06ePARCs2ypi56QDhGGD31uocnHHhDbcC4jFYz0I+7d3797F9DPh30sH6MWLF5QtWzblgsekSXh348WLZ/CJ0GIVJB0gCNmtWzdDcLTQzZs3q5A9YJ2DBg0y8bhixYqA77v1pRKAEJzBhg484WJWYcqPTqmINkLYFeMRezcnIcfR1RPM50oAgt8fpxKYAvDUye3ArzTBW+/evYPRpSvvKAEIkixdutQEUNasWbWwbO/atcvEF/xA586dc0X5wRSqDCBYtvlNK1pqs2bNCIe2VBGOV+bKlcsEkMreAz0oAwiVb9myxaQMgDRy5Egl+KDBwLoOHtg/xGy/fPlSCT+sUqUAgYkhQ4YYCoFisCHcuHEj40/aE8H6DBjGBxYzqkk5QDCg4sgirxyYgGQta7Fg6dq1q6l+8KLLOSHlAKGFYvNqd1B43LhxrjZgzDm8C541EhyxRMPRgbQACIqA7wVnRZmS2LNx48Z08uRJobr69esXrVy50m9BgDpbt26tLIrUTkhtAAJzOAJi3R9BaYj+6dy5M128eNFOhqA/g7tj+/btVLlyZb+GgHpgHLU7kBx0BS68qBVAkA8GyR49etgqEHMTNpGLFi0K+nAVlu2nTp2iiRMnUpUqVWzLhc1t7NixLqjXeZHaAcREmj9/vinAhA157Ikj9ciPMGDAABo/frwPtA0bNvjy9cydO9encORMKFOmDCVKlMgWGJRVokQJ2rZtG6tWu6e2AEFTiJlDLBofF8AAcvrEHge+KZ1d7tCB1gAh+RHmjIoVK5p8SE7AwRw3adIkZcbPULuolgBh1YZ5CPY5J2DgtxjecLQS8QSIFJVxcjxUEAK9rxVAMFTi3Cpy6AQCBt/D6Ye9E2LVYMPDfDNq1ChCcD7mL8QT4Ij9pUuXtHJlBALD7jstAIKv3y7LCA8SwAAI2L8gHApH52E/i3RSChDisrEIiC4jFRxlAAX53X78+BHpWNjKpwwgnLWxuhtYj8FEjgxVCBVWSVjhnT17lhARq4qUADR16lTCppMBwp6IOkUCPx0mcj65U6FChXwLDBUgSQcIG0sGCP+ERVl1j+EBOHbsmIlP5K+bM2cO/4qUv6UBBJMLYuB4UPA3ltJr166VImwoldy9e5eQxMLKr2yHohSAYD22BmJAcKzcrl27ForepL6LA1x8sD8Dy203CC+k6wDBr2IHDnwucJbpTvfu3fPLigKgZA13rgM0ePBgv2ECbm7dzPqBGgqyPTZs2NBPDljV3SZXAYJVmQ0L7Cl7DBelQCy5kZiWyYEnLBqHDh0SVYVtOa4BhFWQ1WTTpUsXWybC5UP0JKuLHAH2OCrpFrkCEMJkkYCIb21Ijhfu9ygABBws5jOQQMYGDRq4Fs/nCkAwz/DgQCDEHEQKwTHIZ8OCrG4d7hIOEI5tIFyWAYSzQDof0opto7GefsD5IUQniSahAGG/Yw3IQEBgJBIOeMFdzhoinm7sj4QCZE3hlSFDBrp//34k4uOTCRGwPECQV7S5ShhAWABYVzhIuRzJhDAu5E7gQRo9erRQkYUBhMgYntF8+fIpzeArVEsBCoN7no8aQmoBpLwRRcIAatmypQmgKVOmiOJR+3Ks3mC43EWREIBg+eVvFMFYrHOCClHKY+WsXr3a1DgRiyfqSKcQgHB8kR/ecA3Z/0RwMOI+PaYDRKqePn1aiAqEAFSzZk2DOZh3dEhQLkQ7IRQyfPhwQwcACtGuIsgxQLAQ8DnVEE8QCSadUJVrTZaLTF4i7n1wDBDuLWVdG8/u3buHKltEvI/AEj6bJGLHRdx95BggdGUeINwt978SspHwusCFu07JMUA8UwisQCTn/0qI+eYBQtZgp+QYoFKlShlM5c6dW/mpaKcKcfJ73HbMAwTPsVNyBBAiQ3FtJmMKph4RE6NToVT9HqMHf3U17n9wSo4AQkQOfzdpu3btnPIT1r/H5tzaYJ0K5Agg3BbMx1WruoDCqRJE/R4jCp9jDjlZnZIjgHC8g/csihhznQqk8vfwh/FzMk7xOTX5OALIelGTaFO7SmXHtm7e5YIk7k69rI4AQhYotkDAE4Hv/zshconpBHkflPYgBB/OnDnTd9oad3CrPKahS8N48OCBL5IWMXQicv046kFMKeEUJcp4DpenEIDCRdhw5NMDSHPUPIA8gDTXgObseT3IA0hzDWjOnteDPIA014Dm7Hk9yANIcw1ozt4/BaeT1Hrs378AAAAASUVORK5CYII=;" vertex="1" parent="M3HQzFZ4Vhxi7hrGT2tp-101">
          <mxGeometry x="12.92142857142856" y="132.08571428571415" width="22.84090909090908" height="22.84090909090908" as="geometry" />
        </mxCell>
        <mxCell id="M3HQzFZ4Vhxi7hrGT2tp-123" value="" style="shape=image;verticalLabelPosition=bottom;labelBackgroundColor=#ffffff;verticalAlign=top;aspect=fixed;imageAspect=0;image=data:image/png,iVBORw0KGgoAAAANSUhEUgAAAGgAAABoCAYAAAAdHLWhAAALCUlEQVR4Ae1ddcgUQRT/7O7uArsVVBRbsbu7sUXF1n8MsBsDwUDsTkzsFgO7G+zuevI7mGV2b7/77r6dnZk794Hs593ezHvvN/nemzdR5JHWGojSmjuPOfIA0rwReAB5AGmuAc3Z83qQB5DmGtCcPa8HeQBprgHN2fN6kAeQexr4+PEjPXz4kI4fP047duygNWvW0Pr162n37t105swZevbsGX3//t09BiSUHHY96Pr167R48WLq0KEDFS5cmJImTUpRUVF+/+LEiUNp0qShcuXK0cCBA2nr1q30+vVrCSoVW0VYAPThwwdatmwZ1a9fP1pA7ECyfpYnTx7q2bMnHT58WKwWXSxNa4B+//5NS5YsoeLFi/v1EKvyQ/l/3LhxqXnz5r6h0UXdCilaW4BOnDhBNWrUCAhMqlSpqFixYlStWjVq1aoV9e3bl3r16kVNmjShSpUqUYECBShhwoTRlpEgQQJfj8I8pitpCdCsWbMoceLEtorNkSMHtWnThpYvX+5bIHz69In+/Pnjp9+fP3/S+/fv6erVqzR9+nSqW7cuAVC7npY/f37av3+/Xxk6fKAVQF++fKF+/frZKhG9Yd68efT8+fNY6+3OnTs0dOhQSp06tV8d6GkzZsyIddlu/VAbgLAQqF27tp/ismfPTtOmTaO3b98K08Hly5epY8eOhLnI2qOGDRsmrB4RBWkB0OfPn6lWrVp+yqpatSrdvn1bhJy2ZaxatYqSJUvmV++ECRNs31fxoRYAderUyU9J7du3J2xE3aaDBw8Slt/WnrRgwQK3qw6qfOUAzZ492085Y8aMCYp5US89efKESpcubeIDm9xbt26JqiLW5SgF6MqVK35DDCwEKghgZMmSxQQSht2/f/+qYMeoUylAsAzwQ0vJkiUJiwVVtG/fPkqePLmJJ6wcVZIygDZt2mRSRJIkSejIkSMqdeGrGytGvtGkT5+eHj9+rIwvJQDBwgwjJq8IWAF0IOzFypYta+Jt8uTJylhTAtDOnTtNCsiYMaPSVmrVPlwX/B6paNGihK2AClICkHVZjWFFN2rUqJGpEe3du1cJi9IBgqmGXy3B7KKjsdI6R6oagqUDhJYIZxqbf6pXr66kZcZUKbyxGHoZnwULFqSvX7/G9DPh30sHCBMuExpPWK51paZNmxq8xo8fn44ePSqdVekA8fMPLMgXLlyQLnSwFS5cuNAACI0JrnbZJB2gChUqGEJjLlK5x4hJ2Xv27DF4BUAjRoyI6SfCv5cK0Ldv3yhnzpyG0BjX4VTTlRAZxM+Xbdu2lc6qVIBevXpFmTJlMgAqX768rTdUuhaiqfDGjRuUMmVKg9969epF86Z7H0sF6NGjR5QuXTpDYDjodKanT58SHIZsUQP/lGySCtCbN28oc+bMhsAI7NCZ4CJPmzatwW+dOnWksysVIARy5M2b1xC4SJEihKAPXen8+fMmk0+LFi2ksyoVIPhWeMcYhg9sCHWlAwcOGI0Jw1z//v2lsyoVIEiHgEE2pqdIkYJu3rwpXehgK0TMAuMVTxW+IekAWf0t69atC1Zf0t/r06ePARCs2ypi56QDhGGD31uocnHHhDbcC4jFYz0I+7d3797F9DPh30sH6MWLF5QtWzblgsekSXh348WLZ/CJ0GIVJB0gCNmtWzdDcLTQzZs3q5A9YJ2DBg0y8bhixYqA77v1pRKAEJzBhg484WJWYcqPTqmINkLYFeMRezcnIcfR1RPM50oAgt8fpxKYAvDUye3ArzTBW+/evYPRpSvvKAEIkixdutQEUNasWbWwbO/atcvEF/xA586dc0X5wRSqDCBYtvlNK1pqs2bNCIe2VBGOV+bKlcsEkMreAz0oAwiVb9myxaQMgDRy5Egl+KDBwLoOHtg/xGy/fPlSCT+sUqUAgYkhQ4YYCoFisCHcuHEj40/aE8H6DBjGBxYzqkk5QDCg4sgirxyYgGQta7Fg6dq1q6l+8KLLOSHlAKGFYvNqd1B43LhxrjZgzDm8C541EhyxRMPRgbQACIqA7wVnRZmS2LNx48Z08uRJobr69esXrVy50m9BgDpbt26tLIrUTkhtAAJzOAJi3R9BaYj+6dy5M128eNFOhqA/g7tj+/btVLlyZb+GgHpgHLU7kBx0BS68qBVAkA8GyR49etgqEHMTNpGLFi0K+nAVlu2nTp2iiRMnUpUqVWzLhc1t7NixLqjXeZHaAcREmj9/vinAhA157Ikj9ciPMGDAABo/frwPtA0bNvjy9cydO9encORMKFOmDCVKlMgWGJRVokQJ2rZtG6tWu6e2AEFTiJlDLBofF8AAcvrEHge+KZ1d7tCB1gAh+RHmjIoVK5p8SE7AwRw3adIkZcbPULuolgBh1YZ5CPY5J2DgtxjecLQS8QSIFJVxcjxUEAK9rxVAMFTi3Cpy6AQCBt/D6Ye9E2LVYMPDfDNq1ChCcD7mL8QT4Ij9pUuXtHJlBALD7jstAIKv3y7LCA8SwAAI2L8gHApH52E/i3RSChDisrEIiC4jFRxlAAX53X78+BHpWNjKpwwgnLWxuhtYj8FEjgxVCBVWSVjhnT17lhARq4qUADR16lTCppMBwp6IOkUCPx0mcj65U6FChXwLDBUgSQcIG0sGCP+ERVl1j+EBOHbsmIlP5K+bM2cO/4qUv6UBBJMLYuB4UPA3ltJr166VImwoldy9e5eQxMLKr2yHohSAYD22BmJAcKzcrl27ForepL6LA1x8sD8Dy203CC+k6wDBr2IHDnwucJbpTvfu3fPLigKgZA13rgM0ePBgv2ECbm7dzPqBGgqyPTZs2NBPDljV3SZXAYJVmQ0L7Cl7DBelQCy5kZiWyYEnLBqHDh0SVYVtOa4BhFWQ1WTTpUsXWybC5UP0JKuLHAH2OCrpFrkCEMJkkYCIb21Ijhfu9ygABBws5jOQQMYGDRq4Fs/nCkAwz/DgQCDEHEQKwTHIZ8OCrG4d7hIOEI5tIFyWAYSzQDof0opto7GefsD5IUQniSahAGG/Yw3IQEBgJBIOeMFdzhoinm7sj4QCZE3hlSFDBrp//34k4uOTCRGwPECQV7S5ShhAWABYVzhIuRzJhDAu5E7gQRo9erRQkYUBhMgYntF8+fIpzeArVEsBCoN7no8aQmoBpLwRRcIAatmypQmgKVOmiOJR+3Ks3mC43EWREIBg+eVvFMFYrHOCClHKY+WsXr3a1DgRiyfqSKcQgHB8kR/ecA3Z/0RwMOI+PaYDRKqePn1aiAqEAFSzZk2DOZh3dEhQLkQ7IRQyfPhwQwcACtGuIsgxQLAQ8DnVEE8QCSadUJVrTZaLTF4i7n1wDBDuLWVdG8/u3buHKltEvI/AEj6bJGLHRdx95BggdGUeINwt978SspHwusCFu07JMUA8UwisQCTn/0qI+eYBQtZgp+QYoFKlShlM5c6dW/mpaKcKcfJ73HbMAwTPsVNyBBAiQ3FtJmMKph4RE6NToVT9HqMHf3U17n9wSo4AQkQOfzdpu3btnPIT1r/H5tzaYJ0K5Agg3BbMx1WruoDCqRJE/R4jCp9jDjlZnZIjgHC8g/csihhznQqk8vfwh/FzMk7xOTX5OALIelGTaFO7SmXHtm7e5YIk7k69rI4AQhYotkDAE4Hv/zshconpBHkflPYgBB/OnDnTd9oad3CrPKahS8N48OCBL5IWMXQicv046kFMKeEUJcp4DpenEIDCRdhw5NMDSHPUPIA8gDTXgObseT3IA0hzDWjOnteDPIA014Dm7Hk9yANIcw1ozt4/BaeT1Hrs378AAAAASUVORK5CYII=;" vertex="1" parent="M3HQzFZ4Vhxi7hrGT2tp-101">
          <mxGeometry y="73.37074285714282" width="18.409772727272713" height="18.409772727272713" as="geometry" />
        </mxCell>
        <mxCell id="M3HQzFZ4Vhxi7hrGT2tp-124" value="" style="shape=image;verticalLabelPosition=bottom;labelBackgroundColor=#ffffff;verticalAlign=top;aspect=fixed;imageAspect=0;image=data:image/png,iVBORw0KGgoAAAANSUhEUgAAAGgAAABoCAYAAAAdHLWhAAALCUlEQVR4Ae1ddcgUQRT/7O7uArsVVBRbsbu7sUXF1n8MsBsDwUDsTkzsFgO7G+zuevI7mGV2b7/77r6dnZk794Hs593ezHvvN/nemzdR5JHWGojSmjuPOfIA0rwReAB5AGmuAc3Z83qQB5DmGtCcPa8HeQBprgHN2fN6kAeQexr4+PEjPXz4kI4fP047duygNWvW0Pr162n37t105swZevbsGX3//t09BiSUHHY96Pr167R48WLq0KEDFS5cmJImTUpRUVF+/+LEiUNp0qShcuXK0cCBA2nr1q30+vVrCSoVW0VYAPThwwdatmwZ1a9fP1pA7ECyfpYnTx7q2bMnHT58WKwWXSxNa4B+//5NS5YsoeLFi/v1EKvyQ/l/3LhxqXnz5r6h0UXdCilaW4BOnDhBNWrUCAhMqlSpqFixYlStWjVq1aoV9e3bl3r16kVNmjShSpUqUYECBShhwoTRlpEgQQJfj8I8pitpCdCsWbMoceLEtorNkSMHtWnThpYvX+5bIHz69In+/Pnjp9+fP3/S+/fv6erVqzR9+nSqW7cuAVC7npY/f37av3+/Xxk6fKAVQF++fKF+/frZKhG9Yd68efT8+fNY6+3OnTs0dOhQSp06tV8d6GkzZsyIddlu/VAbgLAQqF27tp/ismfPTtOmTaO3b98K08Hly5epY8eOhLnI2qOGDRsmrB4RBWkB0OfPn6lWrVp+yqpatSrdvn1bhJy2ZaxatYqSJUvmV++ECRNs31fxoRYAderUyU9J7du3J2xE3aaDBw8Slt/WnrRgwQK3qw6qfOUAzZ492085Y8aMCYp5US89efKESpcubeIDm9xbt26JqiLW5SgF6MqVK35DDCwEKghgZMmSxQQSht2/f/+qYMeoUylAsAzwQ0vJkiUJiwVVtG/fPkqePLmJJ6wcVZIygDZt2mRSRJIkSejIkSMqdeGrGytGvtGkT5+eHj9+rIwvJQDBwgwjJq8IWAF0IOzFypYta+Jt8uTJylhTAtDOnTtNCsiYMaPSVmrVPlwX/B6paNGihK2AClICkHVZjWFFN2rUqJGpEe3du1cJi9IBgqmGXy3B7KKjsdI6R6oagqUDhJYIZxqbf6pXr66kZcZUKbyxGHoZnwULFqSvX7/G9DPh30sHCBMuExpPWK51paZNmxq8xo8fn44ePSqdVekA8fMPLMgXLlyQLnSwFS5cuNAACI0JrnbZJB2gChUqGEJjLlK5x4hJ2Xv27DF4BUAjRoyI6SfCv5cK0Ldv3yhnzpyG0BjX4VTTlRAZxM+Xbdu2lc6qVIBevXpFmTJlMgAqX768rTdUuhaiqfDGjRuUMmVKg9969epF86Z7H0sF6NGjR5QuXTpDYDjodKanT58SHIZsUQP/lGySCtCbN28oc+bMhsAI7NCZ4CJPmzatwW+dOnWksysVIARy5M2b1xC4SJEihKAPXen8+fMmk0+LFi2ksyoVIPhWeMcYhg9sCHWlAwcOGI0Jw1z//v2lsyoVIEiHgEE2pqdIkYJu3rwpXehgK0TMAuMVTxW+IekAWf0t69atC1Zf0t/r06ePARCs2ypi56QDhGGD31uocnHHhDbcC4jFYz0I+7d3797F9DPh30sH6MWLF5QtWzblgsekSXh348WLZ/CJ0GIVJB0gCNmtWzdDcLTQzZs3q5A9YJ2DBg0y8bhixYqA77v1pRKAEJzBhg484WJWYcqPTqmINkLYFeMRezcnIcfR1RPM50oAgt8fpxKYAvDUye3ArzTBW+/evYPRpSvvKAEIkixdutQEUNasWbWwbO/atcvEF/xA586dc0X5wRSqDCBYtvlNK1pqs2bNCIe2VBGOV+bKlcsEkMreAz0oAwiVb9myxaQMgDRy5Egl+KDBwLoOHtg/xGy/fPlSCT+sUqUAgYkhQ4YYCoFisCHcuHEj40/aE8H6DBjGBxYzqkk5QDCg4sgirxyYgGQta7Fg6dq1q6l+8KLLOSHlAKGFYvNqd1B43LhxrjZgzDm8C541EhyxRMPRgbQACIqA7wVnRZmS2LNx48Z08uRJobr69esXrVy50m9BgDpbt26tLIrUTkhtAAJzOAJi3R9BaYj+6dy5M128eNFOhqA/g7tj+/btVLlyZb+GgHpgHLU7kBx0BS68qBVAkA8GyR49etgqEHMTNpGLFi0K+nAVlu2nTp2iiRMnUpUqVWzLhc1t7NixLqjXeZHaAcREmj9/vinAhA157Ikj9ciPMGDAABo/frwPtA0bNvjy9cydO9encORMKFOmDCVKlMgWGJRVokQJ2rZtG6tWu6e2AEFTiJlDLBofF8AAcvrEHge+KZ1d7tCB1gAh+RHmjIoVK5p8SE7AwRw3adIkZcbPULuolgBh1YZ5CPY5J2DgtxjecLQS8QSIFJVxcjxUEAK9rxVAMFTi3Cpy6AQCBt/D6Ye9E2LVYMPDfDNq1ChCcD7mL8QT4Ij9pUuXtHJlBALD7jstAIKv3y7LCA8SwAAI2L8gHApH52E/i3RSChDisrEIiC4jFRxlAAX53X78+BHpWNjKpwwgnLWxuhtYj8FEjgxVCBVWSVjhnT17lhARq4qUADR16lTCppMBwp6IOkUCPx0mcj65U6FChXwLDBUgSQcIG0sGCP+ERVl1j+EBOHbsmIlP5K+bM2cO/4qUv6UBBJMLYuB4UPA3ltJr166VImwoldy9e5eQxMLKr2yHohSAYD22BmJAcKzcrl27ForepL6LA1x8sD8Dy203CC+k6wDBr2IHDnwucJbpTvfu3fPLigKgZA13rgM0ePBgv2ECbm7dzPqBGgqyPTZs2NBPDljV3SZXAYJVmQ0L7Cl7DBelQCy5kZiWyYEnLBqHDh0SVYVtOa4BhFWQ1WTTpUsXWybC5UP0JKuLHAH2OCrpFrkCEMJkkYCIb21Ijhfu9ygABBws5jOQQMYGDRq4Fs/nCkAwz/DgQCDEHEQKwTHIZ8OCrG4d7hIOEI5tIFyWAYSzQDof0opto7GefsD5IUQniSahAGG/Yw3IQEBgJBIOeMFdzhoinm7sj4QCZE3hlSFDBrp//34k4uOTCRGwPECQV7S5ShhAWABYVzhIuRzJhDAu5E7gQRo9erRQkYUBhMgYntF8+fIpzeArVEsBCoN7no8aQmoBpLwRRcIAatmypQmgKVOmiOJR+3Ks3mC43EWREIBg+eVvFMFYrHOCClHKY+WsXr3a1DgRiyfqSKcQgHB8kR/ecA3Z/0RwMOI+PaYDRKqePn1aiAqEAFSzZk2DOZh3dEhQLkQ7IRQyfPhwQwcACtGuIsgxQLAQ8DnVEE8QCSadUJVrTZaLTF4i7n1wDBDuLWVdG8/u3buHKltEvI/AEj6bJGLHRdx95BggdGUeINwt978SspHwusCFu07JMUA8UwisQCTn/0qI+eYBQtZgp+QYoFKlShlM5c6dW/mpaKcKcfJ73HbMAwTPsVNyBBAiQ3FtJmMKph4RE6NToVT9HqMHf3U17n9wSo4AQkQOfzdpu3btnPIT1r/H5tzaYJ0K5Agg3BbMx1WruoDCqRJE/R4jCp9jDjlZnZIjgHC8g/csihhznQqk8vfwh/FzMk7xOTX5OALIelGTaFO7SmXHtm7e5YIk7k69rI4AQhYotkDAE4Hv/zshconpBHkflPYgBB/OnDnTd9oad3CrPKahS8N48OCBL5IWMXQicv046kFMKeEUJcp4DpenEIDCRdhw5NMDSHPUPIA8gDTXgObseT3IA0hzDWjOnteDPIA014Dm7Hk9yANIcw1ozt4/BaeT1Hrs378AAAAASUVORK5CYII=;" vertex="1" parent="M3HQzFZ4Vhxi7hrGT2tp-101">
          <mxGeometry x="86.2806857142857" width="22.84090909090908" height="22.84090909090908" as="geometry" />
        </mxCell>
        <mxCell id="M3HQzFZ4Vhxi7hrGT2tp-125" value="" style="edgeStyle=none;rounded=1;orthogonalLoop=1;jettySize=auto;html=1;fontSize=16;fontColor=#000000;endArrow=none;endFill=0;strokeColor=default;entryX=0.387;entryY=0.055;entryDx=0;entryDy=0;entryPerimeter=0;strokeWidth=1;" edge="1" parent="M3HQzFZ4Vhxi7hrGT2tp-101" target="M3HQzFZ4Vhxi7hrGT2tp-112">
          <mxGeometry relative="1" as="geometry">
            <mxPoint x="109.24840587706623" y="22.96665973971917" as="sourcePoint" />
            <mxPoint x="123.54034285714286" y="51.490457142857025" as="targetPoint" />
          </mxGeometry>
        </mxCell>
        <mxCell id="M3HQzFZ4Vhxi7hrGT2tp-126" value="" style="endArrow=none;html=1;rounded=1;fontSize=16;fontColor=#000000;strokeColor=#6c8ebf;entryX=0;entryY=0.5;entryDx=0;entryDy=0;fillColor=#dae8fc;exitX=0.94;exitY=0.914;exitDx=0;exitDy=0;exitPerimeter=0;" edge="1" parent="M3HQzFZ4Vhxi7hrGT2tp-101" source="M3HQzFZ4Vhxi7hrGT2tp-123" target="M3HQzFZ4Vhxi7hrGT2tp-106">
          <mxGeometry width="50" height="50" relative="1" as="geometry">
            <mxPoint x="24.395657142857136" y="57.4292155451988" as="sourcePoint" />
            <mxPoint x="49.52639999999995" y="72.98022857142848" as="targetPoint" />
          </mxGeometry>
        </mxCell>
        <mxCell id="M3HQzFZ4Vhxi7hrGT2tp-127" value="" style="endArrow=none;html=1;rounded=1;fontSize=16;fontColor=#000000;strokeColor=#6c8ebf;entryX=0;entryY=1;entryDx=0;entryDy=0;fillColor=#dae8fc;" edge="1" parent="M3HQzFZ4Vhxi7hrGT2tp-101" source="M3HQzFZ4Vhxi7hrGT2tp-122" target="M3HQzFZ4Vhxi7hrGT2tp-105">
          <mxGeometry width="50" height="50" relative="1" as="geometry">
            <mxPoint x="18.514971428571425" y="149.3142857142856" as="sourcePoint" />
            <mxPoint x="51.90394285713728" y="148.99268571428564" as="targetPoint" />
          </mxGeometry>
        </mxCell>
        <mxCell id="M3HQzFZ4Vhxi7hrGT2tp-128" value="" style="edgeStyle=none;rounded=1;orthogonalLoop=1;jettySize=auto;html=1;fontSize=16;fontColor=#000000;endArrow=none;endFill=0;strokeColor=#b85450;fillColor=#f8cecc;exitX=0.5;exitY=0;exitDx=0;exitDy=0;" edge="1" parent="M3HQzFZ4Vhxi7hrGT2tp-101" source="M3HQzFZ4Vhxi7hrGT2tp-106" target="M3HQzFZ4Vhxi7hrGT2tp-124">
          <mxGeometry relative="1" as="geometry">
            <mxPoint x="76.69798688084566" y="34.460755976297214" as="sourcePoint" />
            <mxPoint x="101.21211428571422" y="27.175199999999954" as="targetPoint" />
          </mxGeometry>
        </mxCell>
        <mxCell id="M3HQzFZ4Vhxi7hrGT2tp-129" value="" style="edgeStyle=none;rounded=1;orthogonalLoop=1;jettySize=auto;html=1;fontSize=16;fontColor=#000000;endArrow=none;endFill=0;strokeColor=default;entryX=0;entryY=0;entryDx=0;entryDy=0;" edge="1" parent="M3HQzFZ4Vhxi7hrGT2tp-101" target="M3HQzFZ4Vhxi7hrGT2tp-121">
          <mxGeometry relative="1" as="geometry">
            <mxPoint x="60.90503444849464" y="137.82380259686198" as="sourcePoint" />
            <mxPoint x="93.28926857142848" y="180.18788571428553" as="targetPoint" />
          </mxGeometry>
        </mxCell>
        <mxCell id="M3HQzFZ4Vhxi7hrGT2tp-130" value="" style="edgeStyle=none;rounded=1;orthogonalLoop=1;jettySize=auto;html=1;fontSize=16;fontColor=#000000;endArrow=none;endFill=0;strokeColor=default;" edge="1" parent="M3HQzFZ4Vhxi7hrGT2tp-101" target="M3HQzFZ4Vhxi7hrGT2tp-121">
          <mxGeometry relative="1" as="geometry">
            <mxPoint x="149.19572016278067" y="137.82380259686198" as="sourcePoint" />
            <mxPoint x="178.02857142857133" y="178.02857142857133" as="targetPoint" />
          </mxGeometry>
        </mxCell>
        <mxCell id="M3HQzFZ4Vhxi7hrGT2tp-219" value="" style="rounded=1;whiteSpace=wrap;html=1;fontSize=16;fontColor=#000000;strokeWidth=2;fillColor=#B3B3B3;align=center;strokeColor=#B3B3B3;opacity=30;shadow=0;" vertex="1" parent="M3HQzFZ4Vhxi7hrGT2tp-101">
          <mxGeometry x="-64" y="-19" width="349.8" height="229.33" as="geometry" />
        </mxCell>
        <mxCell id="M3HQzFZ4Vhxi7hrGT2tp-1" value="" style="rounded=1;whiteSpace=wrap;html=1;fontSize=16;fontColor=#000000;strokeWidth=2;fillColor=#B3B3B3;align=center;strokeColor=#B3B3B3;opacity=30;shadow=0;" vertex="1" parent="1">
          <mxGeometry x="65" y="156.57" width="340" height="210" as="geometry" />
        </mxCell>
        <mxCell id="M3HQzFZ4Vhxi7hrGT2tp-2" value="" style="rounded=1;whiteSpace=wrap;html=1;fontSize=16;fontColor=#000000;strokeWidth=2;fillColor=#B3B3B3;align=center;strokeColor=#B3B3B3;opacity=30;shadow=0;" vertex="1" parent="1">
          <mxGeometry x="55" y="171" width="340" height="210" as="geometry" />
        </mxCell>
        <mxCell id="M3HQzFZ4Vhxi7hrGT2tp-5" value="" style="rounded=1;whiteSpace=wrap;html=1;fontSize=16;fontColor=#000000;strokeWidth=2;fillColor=#B3B3B3;align=center;strokeColor=#B3B3B3;opacity=50;shadow=1;" vertex="1" parent="1">
          <mxGeometry x="42.5" y="180" width="340" height="210" as="geometry" />
        </mxCell>
        <mxCell id="M3HQzFZ4Vhxi7hrGT2tp-6" value="" style="rounded=1;whiteSpace=wrap;html=1;fillColor=none;dashed=1;strokeWidth=4;" vertex="1" parent="1">
          <mxGeometry x="-528" y="250" width="390" height="410" as="geometry" />
        </mxCell>
        <mxCell id="M3HQzFZ4Vhxi7hrGT2tp-7" value="" style="shape=image;verticalLabelPosition=bottom;labelBackgroundColor=#ffffff;verticalAlign=top;aspect=fixed;imageAspect=0;image=data:image/png,iVBORw0KGgoAAAANSUhEUgAAAFgAAABYCAYAAABxlTA0AAAIcElEQVR4Ae2ddYgWTxjH1w5EMdE/bL3D7lYQG+WEsxHBQEQR8Q8buwUVbESw4w5bsNA/xEAwsAMRBbG7Ox75Lr+Rfffejam93767A3vzbs0889nnZieeedagOGglYGhNPU6cIgP458+f9OfPn8AfeUoDvn37Nk2YMIFat25N1atXpwYNGtDYsWPp5s2bgYFOWcArVqygkiVLkmEYObYyZcrQoUOHAoGckoAnT56cA6oddKFChejAgQPaIScAvnHjBu3cuZPWrl3ruW3YsIGOHj1Knz9/1i4kTwZTpkzxhMtgA/K+fft4kue+1gT84MED6t27NxUpUsS3cEzIWrVq0bp167gz1nHD1KlTueUvXLgw7d+/X4c4ZpoG3q7t27fnFowBZvH27du1Cekn4WnTpgmXAYqlq7ow8EZlkGRivKXfvXvnh4Xya6ZPny5dBl11snHs2DFp4diD2bJli3J4XgnOnDlTmfw6qgvj7NmzygQcMGCAFw+l52fNmqVMdqYkqC5UvviMx48fU/78+ZUImpaWRl++fFEK0SkxHXAZZGjynj17nLLmOm62Ijp37qwEcLly5ejRo0dcAohcPGfOHCXyMqDJ4gIFCphNVhH5rPeYgA8ePKhE4Hz58tHFixet6Sv/PW/ePCWyJoNqP1awYEGSbR3962jMmDFDieCyAjk9ka9fv9L48eOVyGgH6bW/bNkyQnNWJPwDjJu3bt1KmZmZ1KJFC2rWrFnChmP169enPHnyuBYSD0pHOH36NHXq1Im6du1K3bp1C2xD9dmjRw+6du2aULESAFtT+P37tzm8hyE+Nsz37NkzKl++vCvgwYMHW5OJ/G9HwE5kmjdv7gq4Y8eOTrdG8jg34CFDhrgCRo9u1apVhOHCqGxr1qyhzZs3EzptHz9+TFAkbsBLlixxBez1wkj18+np6bR48WL69euXCZob8PHjx2PASQbx7YozfPhwMcD379+n4sWLx5B9QL5+/Tr/pOePHz+obt26MWAfgDH4xV1FQO/79u0bA/YBGGPMQoAXLlwYA/YB+O7du2KAVY1d2F8MqbSP1gSqUyENvnfvHhUrVizWYhctxhQWghBgtPFq164dA3YAnDdvXjp//rw4YNyJ2YtU+pdWWZZGjRrR9+/f5QDPnz8/BuygwQsWLDDh4o9QFYEb9+7dGwNOAhhzenfu3JEHfOvWLWVzeSr/PXM7LYxVW4OwBmPUqHLlyrEW27QYJmXWIAwYiaiaLM1trVOVf+nSpen58+dWvuJ1MFIZPXp0rMEWDe7fv38CXOxIaTAGmlU9/VRIJysrSy3gM2fOxID/02DYhLx8+VItYFgFlSpVKoZsGDRw4MAccKWrCHSZmzZtGgM2DNq9e7d6wEhx0KBBkQcMU4ZXr17pAbx06dLIA4aSOQWpVgQSVWlfHNaWxK5du5z4yjXTkCrGhqM8CVqxYkV6+/atPsAwisNCmLBqn6zc48aNc4SLE9JVBBKBwaCsoGG8HwPr586d0w9YxSKUMAJGExVGkm5BiQbv2LEjkhqMRZteQQngq1evEkzuw6iFojL7XfCjBDCsz6tWrRoZwBg1Q5n9BCWAkVFGRoYrYLwQoOVYxxGmjcmNwRy4ReBdC6gMsNdSVqykRIP8ypUrdOnSpdBsWNSD6TF0hZmlvx/NZdcoA4wK36s+O3nyJMs3MrEywPAu4rWgcfXq1ZEBywqqDDAmQbF8wE2LmVEyyzwKsTLAgNW9e3dXwO3atYsC04QyKgU8ceJEV8A1atTIsUgkQZoU3FEK2KtHB6sX2MxGKSgFDItCr5Wg2dnZ9OHDh9Bs79+/N+18RZVCKWAIU6VKFddqAtMreBlWq1btf7+hd4qtcePG1KdPH9MJFC9opYCRObqRbi2JsJ/LtZ4ce7JY8Rh2iG7y16tXj2vlvXINRv2aygM/ZcuWdZ0iYorGYuWAkbBOdy9u2hXEOSgPj9scLYDfvHmTsgYpWCPIE7QAhgAPHz40HXgEoVVB5YGxFq85ODt8bYCR0dOnTwnDmC1btqRKlSqZzjwqVKhAYdtgaN62bVtzuNUO0GtfK2Br5mgjwzgZFogYW0X84sWLUGx2HxDWcnn9DgywlyCpej4wwDB13bZtG02aNMlcYzdq1Chavny5ObORW3DhaxNe/mBft2jRIlq5ciXBE6LXVDyPvNoBw8R17ty5js6UMD/Xs2dPwsx0UAHV1ezZsx3b661ataJNmzYpEUcr4NevX5tuuPy85eEOXKXPSCc6WMPWpEkTX73NXr160adPn5yS8nVcG2CsNIefMz9w2TVFixalCxcu+BJc5CK4ffSadWGysLhfv35Ck51MPm2A4RiICckTY52vrNawwtnjYcOGCckk4+FbC2A0a2DWyQPWeq0O94zwnwNflNZ8/P5G9xj1tkjQAljWKNtpQYlIAdk9PM7zk4EXdXerBbDssoKGDRtK1XsMqjWGz8tk4PwegwWpSNACWORrANaCYrbDr+2X30K3adNGCjC+ICMStACGS0UrMN7faEapDh06dJCSCR0kkaAF8KlTp6QKM3ToUJGyuN4zZswYKZk2btzomr7TSS2A8e9ds2ZN4QLB2YfqcOLECWF58O2jJ0+eCImkBTAkEa0m4D7327dvQoVxuwnjC7wdH1a1yTid1gYYPTkvUypWABaXKFFCqw94tIV53ZHhgWOeUTRoAwyBUFV4+RtmcNFygBtx3eHw4cMEY2qWr1sM12VYBygTtAJmgq1fv57q1KmTtFDQ2pEjRwbyeQgmDzS5S5cuSeUBcBiLwxLU7r2E3c8TBwIYAqH7jK9eYZgQbUo0e/BZNVkN4Sms/dojR47QiBEjzI9lYXkAoOPTPZcvX7ZfKrwfGGBhCUN+YwxY8wP8C+1jfWpmJwRzAAAAAElFTkSuQmCC;" vertex="1" parent="1">
          <mxGeometry x="-370" y="330" width="58" height="58" as="geometry" />
        </mxCell>
        <mxCell id="M3HQzFZ4Vhxi7hrGT2tp-8" value="" style="shape=image;verticalLabelPosition=bottom;labelBackgroundColor=#ffffff;verticalAlign=top;aspect=fixed;imageAspect=0;image=data:image/png,iVBORw0KGgoAAAANSUhEUgAAAEcAAABHCAYAAABVsFofAAAOfklEQVR4Ae2a+XcUVRbH+RPmtzlnxFHZCYvpLb2kk3SWTnc1AVEZtsgQIkoCRgRlE9kSUBBFOAjIHMew74uoQIDsCSogKOuIsooyEBj2nSTfOd/bqaISkiYJiXaQPuedqlSqXr37effd7VUzACg9sx3le8bgdnYX3M1WcHur9xFuCu5s9aL0m0EoPbYGKLtDBNX+mpWd/w4o8AHbE3Bn26MMpbJsyO8C7HoOpT99Wi0YXmx2Z9cIoDjhEdaUylD0qwIFXXA79x8ov3W+WkDNbm31aRpza4sX5TleoEgBCh/QChQgT8Hd7JpfTk2UfooU6Zf96wcX6Pyu7tmyHC9ub/Gi6vjqoukcq8iVf89slGUrKM1WUHbxQPVwOAh1kGU5Cn5a6saK9CisnuKqtq2a7MLnU13Imx2No8viUJrtBQoUDbDaF6Fd3eTBl++7sGRiFH5e5gb7V/8f6MhnL37pwbr3XFiWHoWTq9wozVHkefbD/tgv+w80Oeo7SnO82P1pLBZNiELx3Bh5hmAFTI6C8ov7qoejdsAjZ3l5ugvPtDWgTYgRT7UxSHu6jQFqe6q1AS3aGdCxsxERdjNSe9uwc36sAOIM36ow5uW5CkrWexDhMOOvT4ViZYZLZk7/vprOOctHl7thMJrwZCsDtn4UrWkg+2F/7Jf98z019cPrNL6cvIzUcPyleSgG97EDuQqoFIRD6OUX99cODjWmTYgBkQ4zkp63Sev/vA1qS3rBhj5drYh2mgUgB280mjBzuBO3tnlRVjFYDvrc5x64oyx4urUBa9+tG5xjK9ywW/3vyJl1Dw77YX/sl/3XFs57aU78rYUBb/RzPBwcagnBXNvkX3I3srxQ280s/3L579p4Ue0XvWFo2c6AFm0NmJbmRHmFHVLhxLsseKZN/eA4bGa07WBEVTjsj/3WBc7UNCeeaGnAsIaAQ02hWiKX6le5cflQNVHsw6WvPMhIcaBdR6MIsnpKlCyfRx4OtYVgAq1p5HPdepHS04YnW4UiIc6CcxviZZ1zZh9ZzakNHNGuQgX7MuNgDTOhbYgBX013Adt9ovZ/ejil27woz/UitbcdzVuG4oOh4cB2Bec2PNYciXG4vKamhYvRG5lkF9d7/jEcrwbn/aF+OG/1t4vNeQyHgRZD/TwFo5MdojlThoSLJ2uMZbVmiktCg7q6coYZdOUNEufQldfaIOcpOL8hHt5oi0TXC8dHNppBzpoRLe+IibTg9Np4CSkCeVM1v0tP8U/c2IEOmUg1fahzhMwgsLZwmNvQ+DJCZnDGyPrESrfYnAZ35fkKDi2Kg8lkwrOhRuz8V6y8JxAcNUZLesEqqcjckRHyjNR06pM+qHAYDZdl+/MTdqa1bfeWEooVbJnhgtlkkvxr9gj/yxsjCKSgN7d4JX15srVB8iXmg/rkuSooBqoFH8cIzPadjCj8OEYDWq/cigln8os2UT9J81me0Ld8BfROtCkzhjklt2KONaSPDTe3eMAIujHgqDHVgnGRkvwyp8v60AV87ZOSiB6MlDyKfTi91o3unjDRGuaFN7Z4tMC2XnBatzdAibHgwzecIjyP+vb+606MSXbAF2ORlKFDJyMG9bTh9Lp4gcZBNhYclj0ubfRgQMUysYWZsCIjCtc3e/z1mmIfqM1Mb3b/OxYvPWeVygKX4o4qy7BecDp0NkpJonlLA6pr1BIuvZBORhBMv+5W3MjyyKDUglZjwRHtyVdkInon+DWifUcj/uELk4lkLSrznUikJdphMZvAEkuoweivCrDupKuP1wtOmw4GxERYMPQlu7TXE+1QG6+l9LLhufgwhBpMUrYwm02g+766+V4JoTHhCKACRZbMW/0dCA01ySQSBLWe9agnWobKOaHlz/aXPKrapnrBoVYMeKHmrJz0L38VL1W11F42WVocGAtKyPOKgWxsOAIoj9VBf5Xvw2FOdHOHoeOzJimEjXnZgU0fROPKRo/YS73G8Fm2esOhK5eaba5fWFJXG70G1z6NNQf38VtOWWKsvazMiBJv8HvA8QtYUfPe5cOiCZH4e2sDUnv50xfanvIApdmHglObIJAQ6MlGv+yQkgUDwZLPG6dkoc64epSieZ6/TIqvFak3E05KT7tM2oPqy40OhwMlHNZ8nXazrPPVk6MaJUJWocg7CxUcXhKHCa+Go//zVnAZ0R62DjEipZdd3HVQwJGYItcrHoL5C/MYBl8NnVupcBhjcZeEWtqynREdn7UgpLMZnUNNUpEMKjiSv+QrmPa6PysfNcAh2kQ47ooa8ro6FtiPr3RDrSFnz/R7G8KhvWMg93IPG1qHmBATE4NZs2Zh9OjRMJvNwQ/nTZYs8hXxFAwm6f0YqNGAq7Mf6EhbwhwqzGIST7h93r2Qn/0eXBgnOxOhRjO2bdumbasMHz4cHTpbgnBZ5SkY/k9mvqGYMjhcPBZnuW83K5q3MuCjYc7awylSJC1gcMcU4T+L47TIm/Ztx/xY0RJHeAR+++03Dc7ChQtledFb8d1BYXM4mywfxEbSBhiwPN3vzqkps97011ESu1pxM8ufdwXSGlmiBQomDw6XfKhXQpikBhSWz+nhRES6cPLkSQ3OkiVLgguObNMUKxIhP93WILug9FzcvyK0fZmxkrFTCxjaM0msGqnqYdGQc5vZ5TTLcpw/OqKSxunhOCOicOLECQ3OokWLfj84LA9QeM5m1SYeqiJTXzwhUkoCDNvnVJQsGJHynrJcL8a94pDgjDZky0cu8WS0K/w/++WRwRp3LI4sj5OSBOOVhFgLzqyL13ZRq2rOHwKHJYsBL9r8UXDF1xRqwCXHXD80ehQKzgSUyejg3iwJeGUfS9UG3n9qjVsyeN7DZHDeqAiUbIj3f9GRyw1CL65s8mD9VBfiIs2SLLI+xE1/aoraV1DAaR3i34se/0o4xr8ajnGv6Nqr4WCpkR8QcDOfM8z70/racGb9vZJFJYEqAraXulllqVDDWAMemmjHOwMdGJHkALeVmX4QIINJ2fsqqpxF/+FwlqW7RGAaVnqealsLfymjXQeD7HCumhwlS4Nawu9o9GDUc2oAk0AuO9qTVu3ZvwFPtPA3ArNaTBiV7MDPS92iMVxy6vPq8Xe1OfoB0Ih+Oz8WDOLeGajTFp3m8PqklHDxQlkzXFJYR5FPq66pQlR3VPOwX1a5se7dKCmgTRwUjvdec8o3N4xtZA9e94FR1X5qC4fOQD6cqrBt7IceT8xCviLFOPl4KdAnKHo4lTpgQllTU19c4H9JVQEC/U1DLQPkl2OqPeORf+cHrgez39rAGdzbjtNr3OIpjy2v+MCqyCf1Z+Zj+xbE4SxNQKEPyPeh/EINHy/dKU6GfBtXUePg4AnsgU1XUQsEI9D/9O8KdJ/+fw+CYzJZEBthkbzLGmaW3RDaTRr31/rYJCXhdUbuiydE4W62D7h2RAsH9CfNSn/5Evi2qwB6IJDaQGvke6hh3JJhHlWdK7dYLPJFWOdQM8KsdklGO3Tyb+V06MyjCWaLFR07m2EwWbDwg0HC486dO7h9+7aeDZqhvAx3f85EeXGiAEJhF/+xIEiPOxKwN9MdEE5YWBjmz5+Pw4cPIzMzEza7HaJRsbHYtGkTfvzxR0yYMAFmSxg8SjdkZExBYmIievfujWnTpuHUqVMCqZmKqvz2/8BvkstLvkFZybdB23BxF77LXeyH43TeFyFbrVb07dtXFUuOSUlJsNvtmD59unb9119/RUREBMwWC/iMzWaTxvu6d++OixcvQoOjPdUETvbsPVQjHAo5ZMiQSlKkpKQInDlz5mjXz507B4/HA2qZy+XCJ598AqYfbrdbILEM0jTh7NkTEE5qaqoGgSeDBg0SOLNnz9aunz17FvHx8QJiwYIF2nVm9gTG/wUlnCtXruD69evagKue7GkgONQSGnD2p/62bt0q4LkJGFRwdu/ejTFjxqBLly5ISEhAWloasrKy1HFrx5rg0Pg6HA4MHDhQu5cnycnJCA8Px8yZM7Xr1Jy4uDiB8/3332vXN2/eHHxw1q9fL4LRZtBAqkaSKq5fDpSiJjirV6+Gz+fDqFGjNGF5MnLkSAH+2WefadcJh7aG/XNS1F/QwSkpKZFaMIH06NEDq1atwoYNGzB48GCBRAFoMNVfTXBu3bolXobLUv+7evUqLly4gBs3bmiXz5w5g65duyIyMhI//PCDdj3o4HzxxReapuhV/O7duxg/frwYTQKaN2+eCLF///5qDbImYS1OGPCxinjs2LFK0IIOzty5cwUAbcDly5criUZAEydO1AAtXboUBw4ceGg4lV6i+yPo4OTl5YnmMADLzc3VDdV/ytB+3LhxAohpA101vQyDOH2Z9L4H63Eh6OBcu3YNffr0EeEZX+hdqyofNWjSpEkCkWAIKSqqcg1ZvfdhjkEHh8LQKHKDjtrDo96DqMKWlpaKBtH+ENCfBg4BUGO8Xq8Aogbt3LlT5aIdCSg9PV00yFklt9JueoiToNQcVZ69e/dK6E4NopvdsWOH+i/tyCXGWIZR7PHjx7XrDXES1HAo4MGDBzUNYqBWVFR0n9w00syyWX5oyF/Qw6Gwhw4dkqhW1aDCwsL7GDBWYYDXkL8mAYcCHzlyRGorTCm4xHJychqSQ7V9NRk4HP3Ro0fRs2dPMdJMHquLg6qVsp4XmxQcysiqXa9evTRA1WXq9WRx32NNDg4l4KcmLH/SBrEsQSEa49ck4RAEM2lG0gREO8SEtaF/TRYOQZw+fRr9+/cXQCxxNDSgJg1H1aB+/fpJlMxAsLpcrL4a1eThUHDWYWh7mIA2pIvnN4bsky2oash1me1Lly4hOjpahMjPz6/LowHvXbFihZROmbc1WTjcd2JqwRluCDgbN26UXVAmvjT2I0aMeAxHVaOxY8eKkWc5hICYsz3WnAo6GRkZojEMFdTq4mM4OjiMn/iBgfp7DKcKnLfffltlg/8DV/+cBcX00/4AAAAASUVORK5CYII=;" vertex="1" parent="1">
          <mxGeometry x="-460" y="484" width="56" height="56" as="geometry" />
        </mxCell>
        <mxCell id="M3HQzFZ4Vhxi7hrGT2tp-9" value="" style="shape=image;verticalLabelPosition=bottom;labelBackgroundColor=#ffffff;verticalAlign=top;aspect=fixed;imageAspect=0;image=data:image/png,iVBORw0KGgoAAAANSUhEUgAAAEMAAABDCAYAAADHyrhzAAAJd0lEQVR4Ae2bBagUXRTHn/XZ3QEqtqhYYKCChYioWKhgiy12I3Yg2CiKCna3KBgoit2B3d3dfT5+A3e4szuzM7s7uyq8A4+7E/fc//xvnbgvQRLFZCDB/JX4QxLJ0AZBIhl/moz379/LvXv35OLFi3Ly5Ek5ePCgHD58WE6cOGHce/78ufz8+VODGZ+fcRkZt2/flnXr1knv3r2lVq1aUrJkScmRI4ekT59eUqZMKUmSJJFkyZLJf//9Z9zLnz+/VKpUSdq1ayfz58+XM2fOyO/fv2POSMzIuH//vsydO1fq1asnmTNnloSEhIj/IKlGjRoyZcoUuXHjRsxI8Z2MCxcuyJAhQyRnzpwhP56RkDFjRsmSJYtky5bNKLlOnjx5yHq8379/fzl37pzvpPhGxuvXr6Vfv36SIUMG24/JmjWrMfQHDRok69evN9YHevnu3bvy8OFDo+T61KlTsnnzZhkxYoRUq1ZNcufObauPKdarVy958OCBb6T4QgbgS5UqFQQ6VapU0qxZM1mxYoWxYEaC+vHjx7J161Zp27atMZICp1uuXLlkzpw5kagOqhMVGW/fvjWGbCBAeq1Lly5y+vTpoAajuXHlyhVhZNmNliZNmggLdTQSMRlXr16VihUrBo0GQLFuxFKYWt27d5cUKVJY2i9YsKAcO3Ys4qYjIoOPLVSokAUI2+HatWsjBhJJxX379knZsmUtOFiEd+3aFYm68M3xmzdvStGiRS0AmjdvLnfu3IkIQLSVXr16JZ06dbLgyZQpk+zcuTNs1WGNDBaz0qVLWxru2bNnXAwity8bOXKkBRcj5OzZs27VLM89k/H582epWbOmpcGxY8dalP3pi9mzZ1vwMYIx/ryKZzKwIfRdg+u/USZMmGDB2bBhQ/nx44cnqJ7I2LBhg6UBbIe/WTp37mzBO3nyZE9wXcn48OGDFC9e3FReuHBhefTokSflf+olvOIKFSqYmNOmTSuXL192heNKxujRo02leJeRrNKuKGLwAgZfmjRpTOzYP24SkgwWH93j9KLQrcF4Ph86dKhJRtKkSeXAgQMhmw9JxqhRo0xlOGCYw/+SvHnzxmIctmzZMiR8RzJYF/A01Q6Cr/EvytSpU81vIDyAV+wkjmQsWLDAVIL3ef78eScdf/V9LFRcBdWpw4YNc8TrSEbjxo1NBQ0aNHBU8C88wNNVZLDLfPv2zRa2LRlPnjwxok9KwcKFC20re7n569cvL6/F9J3du3cbcVa+hwgbgWc7sSVDN7JSp04tly5dsqvr6d7Hjx9l8ODBRgDmTzlz7969E9x71bmTJk2yxW5LRrdu3cyKuMjfv3+3rez1JlFugBC/xMNdsmSJXL9+3Wt1X95r06aN+U3169e31RlEBiF53SEj+BqtkBtheKqeocSrBBQLNcGaWAspB9V+sWLFBCs1UILI4KUSJUqYFYlfRiusG+RBFJjAkhFDSmHGjBlCBC0WcujQIbN9OsaunSAy6KXs2bObFffv3+8LtjFjxpg6A8nQr/Ej2L1mzpzp63ZOlo4UBhF1PG67eGkQGaT8COgCkORNuAESJ+bQo2KWmMYtWrSQRo0aWcx9nRR+Y99Ur15diFMQaox1Vi2IDOY3KT/AYIL7udDVrl3bHB30EEKuZNmyZdK0adOQxOB0Va1aVRhhsTIAg8hgbtFzkEGmK5xIkdOoUPf1RYxwP1ueLgzdRYsWSevWrYV8SOBIUdeY1YyYcePGydGjR8UvWyaIDAwSpgcNs+ITAPZLGAVqCqJ/8eLFjqox/JYuXSp4yvny5XMkho7Dqhw/fryRJvjy5YujTrcHQWToawbTxe+cJtup6uG6deu64TOeP336VDZt2mRk5fXFXelRJbsEdtGAAQMMYpzMbqdGg8jg3IRqkGCOWwzASbHT/VWrVplkMEoYLeEII2bjxo1GEikwd6NIoQR7uXLljAwceRQvIyaIDFKGel5k9erV4WB1fRcvMk+ePCYhHFuIVMDKiOnRo4cxVQhEQYJOivrNmZA+ffoIrgYjzU6CyODEDKu2UhLK5bVT6OWebhpXqVLFlwXwyJEjgqettm+FP7BkDXKa+kFk8DEdO3Y0yahcubLv+ztHEhRI5vnx48e9cBj0DlNm3rx5wtpDFk3p1EvI4Tk7mdtmYEuGPq/ZUeystSBkYdwg4k6UXYEmG+ZVcBe2b98uXbt2tc3GK51lypSR4cOHO7rrdu3ZkoGrDQlK8cqVK+3qRnWPFV/pZwdwS/RwrguDq0iRImY9VV+V2C6tWrUyIvifPn0KG58tGWjBcVKNYDr7LXv27DH10w4ZdSdZvny5YZorPHrJ9g9WbJJoDURHMqZNm2aCZQv00yzno+k5fdciC2YnTh4vhhY5Hb98J9p2JOPWrVuWqTJw4EA7rFHdI3GterlAgQJCaD9QiGbrh94IDpHI+vr1a+CrUV87koFmPdnM6T2OJPgp9KpyCiGFhTFQ9Iwe60W4VmWgvlDXIckg9kkMVPUe4UA/hUWTrVvpD0zy0Pv6eRAW3VhKSDJoWB8dDFeONvspEydONMlIly6dJQS4Y8cO8xmEhVpk/cDkSsaLFy8kb968Jih6ym5uRwoGQ4jolhoduPBKVCCZZ+XLl4/pFKFNVzJ4ia1NgaVs3769wutLyYESpZ/fCD6M3gnTp0/3pa1QSjyRgQIIUIApw7EaQwHgmR70YY3CzOagrWrP6/kKt3bcnnsm49mzZxa7AKCzZs1y0+/pOWED3eJlHSEMqMioU6eO7/6RHTDPZFCZPV8HDVjOUPkhhPrUxxNP0Q+ahIqI+dG20hEWGVTC4AkkBOvx5cuXSmdE5ZYtW0wyFCmUhPw4pB8PCZsMQBE50k/0AJpdBn8jUmHXsot1cuA1XhIRGYDjzJR+8A1CiB307dtXWF8iEX0rVaNj27ZtkaiKqE7EZNAaC5++0KkPIFaB3xFu1n3v3r2WqUKak8O48ZKoyFAg+X8P/udMkaFKFkK25DVr1njya8j26/+3QvwinuILGQAmGkZsMzDbroghCEz4DfsEGwKv2E5U0IfcDQGdeIpvZCjQDHWiTbrbrQjRyw4dOqgqlpJEN++RtXeLflkq+nDhOxkKE0FeYpB4pXYRa+wKO4EAzk/wn4rxlpiRoT6E1AM7D0cQybqzAxHJDuXfkIi2Oz+hdMaqjDkZgcCJbl+7di1kGJHREevjB4G4uI47GXYg/pZ7iWRoPZFIRiIZGgPaz/8BcMvDSG+AebwAAAAASUVORK5CYII=;" vertex="1" parent="1">
          <mxGeometry x="-270" y="484" width="57" height="57" as="geometry" />
        </mxCell>
        <mxCell id="M3HQzFZ4Vhxi7hrGT2tp-10" value="" style="shape=image;verticalLabelPosition=bottom;labelBackgroundColor=#ffffff;verticalAlign=top;aspect=fixed;imageAspect=0;image=data:image/png,iVBORw0KGgoAAAANSUhEUgAAAGgAAABoCAYAAAAdHLWhAAALCUlEQVR4Ae1ddcgUQRT/7O7uArsVVBRbsbu7sUXF1n8MsBsDwUDsTkzsFgO7G+zuevI7mGV2b7/77r6dnZk794Hs593ezHvvN/nemzdR5JHWGojSmjuPOfIA0rwReAB5AGmuAc3Z83qQB5DmGtCcPa8HeQBprgHN2fN6kAeQexr4+PEjPXz4kI4fP047duygNWvW0Pr162n37t105swZevbsGX3//t09BiSUHHY96Pr167R48WLq0KEDFS5cmJImTUpRUVF+/+LEiUNp0qShcuXK0cCBA2nr1q30+vVrCSoVW0VYAPThwwdatmwZ1a9fP1pA7ECyfpYnTx7q2bMnHT58WKwWXSxNa4B+//5NS5YsoeLFi/v1EKvyQ/l/3LhxqXnz5r6h0UXdCilaW4BOnDhBNWrUCAhMqlSpqFixYlStWjVq1aoV9e3bl3r16kVNmjShSpUqUYECBShhwoTRlpEgQQJfj8I8pitpCdCsWbMoceLEtorNkSMHtWnThpYvX+5bIHz69In+/Pnjp9+fP3/S+/fv6erVqzR9+nSqW7cuAVC7npY/f37av3+/Xxk6fKAVQF++fKF+/frZKhG9Yd68efT8+fNY6+3OnTs0dOhQSp06tV8d6GkzZsyIddlu/VAbgLAQqF27tp/ismfPTtOmTaO3b98K08Hly5epY8eOhLnI2qOGDRsmrB4RBWkB0OfPn6lWrVp+yqpatSrdvn1bhJy2ZaxatYqSJUvmV++ECRNs31fxoRYAderUyU9J7du3J2xE3aaDBw8Slt/WnrRgwQK3qw6qfOUAzZ492085Y8aMCYp5US89efKESpcubeIDm9xbt26JqiLW5SgF6MqVK35DDCwEKghgZMmSxQQSht2/f/+qYMeoUylAsAzwQ0vJkiUJiwVVtG/fPkqePLmJJ6wcVZIygDZt2mRSRJIkSejIkSMqdeGrGytGvtGkT5+eHj9+rIwvJQDBwgwjJq8IWAF0IOzFypYta+Jt8uTJylhTAtDOnTtNCsiYMaPSVmrVPlwX/B6paNGihK2AClICkHVZjWFFN2rUqJGpEe3du1cJi9IBgqmGXy3B7KKjsdI6R6oagqUDhJYIZxqbf6pXr66kZcZUKbyxGHoZnwULFqSvX7/G9DPh30sHCBMuExpPWK51paZNmxq8xo8fn44ePSqdVekA8fMPLMgXLlyQLnSwFS5cuNAACI0JrnbZJB2gChUqGEJjLlK5x4hJ2Xv27DF4BUAjRoyI6SfCv5cK0Ldv3yhnzpyG0BjX4VTTlRAZxM+Xbdu2lc6qVIBevXpFmTJlMgAqX768rTdUuhaiqfDGjRuUMmVKg9969epF86Z7H0sF6NGjR5QuXTpDYDjodKanT58SHIZsUQP/lGySCtCbN28oc+bMhsAI7NCZ4CJPmzatwW+dOnWksysVIARy5M2b1xC4SJEihKAPXen8+fMmk0+LFi2ksyoVIPhWeMcYhg9sCHWlAwcOGI0Jw1z//v2lsyoVIEiHgEE2pqdIkYJu3rwpXehgK0TMAuMVTxW+IekAWf0t69atC1Zf0t/r06ePARCs2ypi56QDhGGD31uocnHHhDbcC4jFYz0I+7d3797F9DPh30sH6MWLF5QtWzblgsekSXh348WLZ/CJ0GIVJB0gCNmtWzdDcLTQzZs3q5A9YJ2DBg0y8bhixYqA77v1pRKAEJzBhg484WJWYcqPTqmINkLYFeMRezcnIcfR1RPM50oAgt8fpxKYAvDUye3ArzTBW+/evYPRpSvvKAEIkixdutQEUNasWbWwbO/atcvEF/xA586dc0X5wRSqDCBYtvlNK1pqs2bNCIe2VBGOV+bKlcsEkMreAz0oAwiVb9myxaQMgDRy5Egl+KDBwLoOHtg/xGy/fPlSCT+sUqUAgYkhQ4YYCoFisCHcuHEj40/aE8H6DBjGBxYzqkk5QDCg4sgirxyYgGQta7Fg6dq1q6l+8KLLOSHlAKGFYvNqd1B43LhxrjZgzDm8C541EhyxRMPRgbQACIqA7wVnRZmS2LNx48Z08uRJobr69esXrVy50m9BgDpbt26tLIrUTkhtAAJzOAJi3R9BaYj+6dy5M128eNFOhqA/g7tj+/btVLlyZb+GgHpgHLU7kBx0BS68qBVAkA8GyR49etgqEHMTNpGLFi0K+nAVlu2nTp2iiRMnUpUqVWzLhc1t7NixLqjXeZHaAcREmj9/vinAhA157Ikj9ciPMGDAABo/frwPtA0bNvjy9cydO9encORMKFOmDCVKlMgWGJRVokQJ2rZtG6tWu6e2AEFTiJlDLBofF8AAcvrEHge+KZ1d7tCB1gAh+RHmjIoVK5p8SE7AwRw3adIkZcbPULuolgBh1YZ5CPY5J2DgtxjecLQS8QSIFJVxcjxUEAK9rxVAMFTi3Cpy6AQCBt/D6Ye9E2LVYMPDfDNq1ChCcD7mL8QT4Ij9pUuXtHJlBALD7jstAIKv3y7LCA8SwAAI2L8gHApH52E/i3RSChDisrEIiC4jFRxlAAX53X78+BHpWNjKpwwgnLWxuhtYj8FEjgxVCBVWSVjhnT17lhARq4qUADR16lTCppMBwp6IOkUCPx0mcj65U6FChXwLDBUgSQcIG0sGCP+ERVl1j+EBOHbsmIlP5K+bM2cO/4qUv6UBBJMLYuB4UPA3ltJr166VImwoldy9e5eQxMLKr2yHohSAYD22BmJAcKzcrl27ForepL6LA1x8sD8Dy203CC+k6wDBr2IHDnwucJbpTvfu3fPLigKgZA13rgM0ePBgv2ECbm7dzPqBGgqyPTZs2NBPDljV3SZXAYJVmQ0L7Cl7DBelQCy5kZiWyYEnLBqHDh0SVYVtOa4BhFWQ1WTTpUsXWybC5UP0JKuLHAH2OCrpFrkCEMJkkYCIb21Ijhfu9ygABBws5jOQQMYGDRq4Fs/nCkAwz/DgQCDEHEQKwTHIZ8OCrG4d7hIOEI5tIFyWAYSzQDof0opto7GefsD5IUQniSahAGG/Yw3IQEBgJBIOeMFdzhoinm7sj4QCZE3hlSFDBrp//34k4uOTCRGwPECQV7S5ShhAWABYVzhIuRzJhDAu5E7gQRo9erRQkYUBhMgYntF8+fIpzeArVEsBCoN7no8aQmoBpLwRRcIAatmypQmgKVOmiOJR+3Ks3mC43EWREIBg+eVvFMFYrHOCClHKY+WsXr3a1DgRiyfqSKcQgHB8kR/ecA3Z/0RwMOI+PaYDRKqePn1aiAqEAFSzZk2DOZh3dEhQLkQ7IRQyfPhwQwcACtGuIsgxQLAQ8DnVEE8QCSadUJVrTZaLTF4i7n1wDBDuLWVdG8/u3buHKltEvI/AEj6bJGLHRdx95BggdGUeINwt978SspHwusCFu07JMUA8UwisQCTn/0qI+eYBQtZgp+QYoFKlShlM5c6dW/mpaKcKcfJ73HbMAwTPsVNyBBAiQ3FtJmMKph4RE6NToVT9HqMHf3U17n9wSo4AQkQOfzdpu3btnPIT1r/H5tzaYJ0K5Agg3BbMx1WruoDCqRJE/R4jCp9jDjlZnZIjgHC8g/csihhznQqk8vfwh/FzMk7xOTX5OALIelGTaFO7SmXHtm7e5YIk7k69rI4AQhYotkDAE4Hv/zshconpBHkflPYgBB/OnDnTd9oad3CrPKahS8N48OCBL5IWMXQicv046kFMKeEUJcp4DpenEIDCRdhw5NMDSHPUPIA8gDTXgObseT3IA0hzDWjOnteDPIA014Dm7Hk9yANIcw1ozt4/BaeT1Hrs378AAAAASUVORK5CYII=;" vertex="1" parent="1">
          <mxGeometry x="-370" y="410" width="74" height="74" as="geometry" />
        </mxCell>
        <mxCell id="M3HQzFZ4Vhxi7hrGT2tp-11" value="&lt;font style=&quot;font-size: 35px&quot;&gt;Buy&lt;/font&gt;" style="text;html=1;resizable=0;autosize=1;align=center;verticalAlign=middle;points=[];fillColor=none;strokeColor=none;rounded=0;dashed=1;fontSize=19;" vertex="1" parent="1">
          <mxGeometry x="-478" y="440" width="80" height="30" as="geometry" />
        </mxCell>
        <mxCell id="M3HQzFZ4Vhxi7hrGT2tp-12" value="&lt;font style=&quot;font-size: 35px&quot;&gt;Cart&lt;/font&gt;" style="text;html=1;resizable=0;autosize=1;align=center;verticalAlign=middle;points=[];fillColor=none;strokeColor=none;rounded=0;dashed=1;fontSize=19;" vertex="1" parent="1">
          <mxGeometry x="-381" y="290" width="80" height="30" as="geometry" />
        </mxCell>
        <mxCell id="M3HQzFZ4Vhxi7hrGT2tp-13" value="&lt;font style=&quot;font-size: 35px&quot;&gt;Click&lt;/font&gt;" style="text;html=1;resizable=0;autosize=1;align=center;verticalAlign=middle;points=[];fillColor=none;strokeColor=none;rounded=0;dashed=1;fontSize=19;" vertex="1" parent="1">
          <mxGeometry x="-283" y="432" width="90" height="30" as="geometry" />
        </mxCell>
        <mxCell id="M3HQzFZ4Vhxi7hrGT2tp-14" value="&lt;font style=&quot;font-size: 28px&quot;&gt;User&#39;s Multi Behavior&lt;/font&gt;" style="text;html=1;resizable=0;autosize=1;align=center;verticalAlign=middle;points=[];fillColor=none;strokeColor=none;rounded=0;dashed=1;fontSize=19;" vertex="1" parent="1">
          <mxGeometry x="-477" y="585" width="280" height="30" as="geometry" />
        </mxCell>
        <mxCell id="M3HQzFZ4Vhxi7hrGT2tp-15" style="edgeStyle=orthogonalEdgeStyle;rounded=0;orthogonalLoop=1;jettySize=auto;html=1;entryX=0;entryY=0.5;entryDx=0;entryDy=0;fontSize=16;fontColor=#000000;" edge="1" parent="1" source="M3HQzFZ4Vhxi7hrGT2tp-16" target="M3HQzFZ4Vhxi7hrGT2tp-18">
          <mxGeometry relative="1" as="geometry" />
        </mxCell>
        <mxCell id="M3HQzFZ4Vhxi7hrGT2tp-16" value="&lt;font color=&quot;#000000&quot;&gt;&lt;span style=&quot;font-size: 15px&quot;&gt;1&lt;/span&gt;&lt;/font&gt;" style="ellipse;whiteSpace=wrap;html=1;aspect=fixed;fontSize=19;fontColor=#3399FF;strokeWidth=2;fillColor=none;align=center;" vertex="1" parent="1">
          <mxGeometry x="97.5" y="335" width="35" height="35" as="geometry" />
        </mxCell>
        <mxCell id="M3HQzFZ4Vhxi7hrGT2tp-17" style="edgeStyle=orthogonalEdgeStyle;rounded=0;orthogonalLoop=1;jettySize=auto;html=1;entryX=0;entryY=0.5;entryDx=0;entryDy=0;fontSize=16;fontColor=#000000;" edge="1" parent="1" source="M3HQzFZ4Vhxi7hrGT2tp-18" target="M3HQzFZ4Vhxi7hrGT2tp-20">
          <mxGeometry relative="1" as="geometry" />
        </mxCell>
        <mxCell id="M3HQzFZ4Vhxi7hrGT2tp-18" value="&lt;font color=&quot;#000000&quot;&gt;&lt;span style=&quot;font-size: 16px&quot;&gt;4&lt;/span&gt;&lt;/font&gt;" style="ellipse;whiteSpace=wrap;html=1;aspect=fixed;fontSize=19;fontColor=#3399FF;strokeWidth=2;fillColor=none;" vertex="1" parent="1">
          <mxGeometry x="157.5" y="335" width="35" height="35" as="geometry" />
        </mxCell>
        <mxCell id="M3HQzFZ4Vhxi7hrGT2tp-19" value="" style="edgeStyle=orthogonalEdgeStyle;rounded=0;orthogonalLoop=1;jettySize=auto;html=1;fontSize=16;fontColor=#000000;" edge="1" parent="1" source="M3HQzFZ4Vhxi7hrGT2tp-20" target="M3HQzFZ4Vhxi7hrGT2tp-21">
          <mxGeometry relative="1" as="geometry" />
        </mxCell>
        <mxCell id="M3HQzFZ4Vhxi7hrGT2tp-20" value="&lt;font color=&quot;#000000&quot;&gt;&lt;span style=&quot;font-size: 15px&quot;&gt;5&lt;/span&gt;&lt;/font&gt;" style="ellipse;whiteSpace=wrap;html=1;aspect=fixed;fontSize=19;fontColor=#3399FF;strokeWidth=2;fillColor=none;align=center;" vertex="1" parent="1">
          <mxGeometry x="217.5" y="335" width="35" height="35" as="geometry" />
        </mxCell>
        <mxCell id="M3HQzFZ4Vhxi7hrGT2tp-21" value="&lt;font color=&quot;#000000&quot;&gt;&lt;span style=&quot;font-size: 16px&quot;&gt;7&lt;/span&gt;&lt;/font&gt;" style="ellipse;whiteSpace=wrap;html=1;aspect=fixed;fontSize=19;fontColor=#3399FF;strokeWidth=2;fillColor=none;" vertex="1" parent="1">
          <mxGeometry x="277.5" y="335" width="35" height="35" as="geometry" />
        </mxCell>
        <mxCell id="M3HQzFZ4Vhxi7hrGT2tp-22" style="edgeStyle=orthogonalEdgeStyle;rounded=0;orthogonalLoop=1;jettySize=auto;html=1;entryX=0;entryY=0.5;entryDx=0;entryDy=0;fontSize=16;fontColor=#000000;" edge="1" parent="1" source="M3HQzFZ4Vhxi7hrGT2tp-23" target="M3HQzFZ4Vhxi7hrGT2tp-25">
          <mxGeometry relative="1" as="geometry" />
        </mxCell>
        <mxCell id="M3HQzFZ4Vhxi7hrGT2tp-23" value="&lt;font color=&quot;#000000&quot;&gt;&lt;span style=&quot;font-size: 15px&quot;&gt;1&lt;/span&gt;&lt;/font&gt;" style="ellipse;whiteSpace=wrap;html=1;aspect=fixed;fontSize=19;fontColor=#3399FF;strokeWidth=2;fillColor=none;align=center;" vertex="1" parent="1">
          <mxGeometry x="97.5" y="270.99" width="35" height="35" as="geometry" />
        </mxCell>
        <mxCell id="M3HQzFZ4Vhxi7hrGT2tp-24" style="edgeStyle=orthogonalEdgeStyle;rounded=0;orthogonalLoop=1;jettySize=auto;html=1;entryX=0;entryY=0.5;entryDx=0;entryDy=0;fontSize=16;fontColor=#000000;" edge="1" parent="1" source="M3HQzFZ4Vhxi7hrGT2tp-25" target="M3HQzFZ4Vhxi7hrGT2tp-26">
          <mxGeometry relative="1" as="geometry" />
        </mxCell>
        <mxCell id="M3HQzFZ4Vhxi7hrGT2tp-25" value="&lt;font color=&quot;#000000&quot;&gt;&lt;span style=&quot;font-size: 16px&quot;&gt;5&lt;/span&gt;&lt;/font&gt;" style="ellipse;whiteSpace=wrap;html=1;aspect=fixed;fontSize=19;fontColor=#3399FF;strokeWidth=2;fillColor=none;" vertex="1" parent="1">
          <mxGeometry x="157.5" y="270.99" width="35" height="35" as="geometry" />
        </mxCell>
        <mxCell id="M3HQzFZ4Vhxi7hrGT2tp-26" value="&lt;font color=&quot;#000000&quot;&gt;&lt;span style=&quot;font-size: 15px&quot;&gt;7&lt;/span&gt;&lt;/font&gt;" style="ellipse;whiteSpace=wrap;html=1;aspect=fixed;fontSize=19;fontColor=#3399FF;strokeWidth=2;fillColor=none;align=center;" vertex="1" parent="1">
          <mxGeometry x="217.5" y="270.99" width="35" height="35" as="geometry" />
        </mxCell>
        <mxCell id="M3HQzFZ4Vhxi7hrGT2tp-27" style="edgeStyle=orthogonalEdgeStyle;rounded=0;orthogonalLoop=1;jettySize=auto;html=1;entryX=0;entryY=0.5;entryDx=0;entryDy=0;fontSize=16;fontColor=#000000;" edge="1" parent="1" source="M3HQzFZ4Vhxi7hrGT2tp-28" target="M3HQzFZ4Vhxi7hrGT2tp-29">
          <mxGeometry relative="1" as="geometry" />
        </mxCell>
        <mxCell id="M3HQzFZ4Vhxi7hrGT2tp-28" value="&lt;font color=&quot;#000000&quot;&gt;&lt;span style=&quot;font-size: 15px&quot;&gt;1&lt;/span&gt;&lt;/font&gt;" style="ellipse;whiteSpace=wrap;html=1;aspect=fixed;fontSize=19;fontColor=#3399FF;strokeWidth=2;fillColor=none;align=center;" vertex="1" parent="1">
          <mxGeometry x="97.5" y="210" width="35" height="35" as="geometry" />
        </mxCell>
        <mxCell id="M3HQzFZ4Vhxi7hrGT2tp-29" value="&lt;font color=&quot;#000000&quot;&gt;&lt;span style=&quot;font-size: 16px&quot;&gt;7&lt;/span&gt;&lt;/font&gt;" style="ellipse;whiteSpace=wrap;html=1;aspect=fixed;fontSize=19;fontColor=#3399FF;strokeWidth=2;fillColor=none;" vertex="1" parent="1">
          <mxGeometry x="157.5" y="210" width="35" height="35" as="geometry" />
        </mxCell>
        <mxCell id="M3HQzFZ4Vhxi7hrGT2tp-30" value="Buy" style="text;html=1;resizable=0;autosize=1;align=center;verticalAlign=middle;points=[];fillColor=none;strokeColor=none;rounded=0;dashed=1;fontSize=19;" vertex="1" parent="1">
          <mxGeometry x="210" y="210" width="50" height="30" as="geometry" />
        </mxCell>
        <mxCell id="M3HQzFZ4Vhxi7hrGT2tp-31" value="cart" style="text;html=1;resizable=0;autosize=1;align=center;verticalAlign=middle;points=[];fillColor=none;strokeColor=none;rounded=0;dashed=1;fontSize=19;" vertex="1" parent="1">
          <mxGeometry x="270" y="270.99" width="50" height="30" as="geometry" />
        </mxCell>
        <mxCell id="M3HQzFZ4Vhxi7hrGT2tp-32" value="Click" style="text;html=1;resizable=0;autosize=1;align=center;verticalAlign=middle;points=[];fillColor=none;strokeColor=none;rounded=0;dashed=1;fontSize=19;" vertex="1" parent="1">
          <mxGeometry x="325" y="340" width="60" height="30" as="geometry" />
        </mxCell>
        <mxCell id="M3HQzFZ4Vhxi7hrGT2tp-33" value="&lt;font style=&quot;font-size: 35px&quot;&gt;Graph view &lt;br&gt;construction&lt;/font&gt;" style="text;html=1;align=center;verticalAlign=middle;resizable=0;points=[];autosize=1;strokeColor=none;fillColor=none;fontSize=16;fontColor=#000000;" vertex="1" parent="1">
          <mxGeometry x="-145" y="594.8700000000001" width="200" height="60" as="geometry" />
        </mxCell>
        <mxCell id="M3HQzFZ4Vhxi7hrGT2tp-98" value="&lt;font color=&quot;#000000&quot; style=&quot;font-size: 35px&quot;&gt;Graph Multi-behavior&amp;nbsp;&lt;/font&gt;" style="text;html=1;resizable=0;autosize=1;align=center;verticalAlign=middle;points=[];fillColor=none;strokeColor=none;rounded=0;shadow=0;sketch=0;fontSize=22;fontColor=#CC0000;rotation=0;" vertex="1" parent="1">
          <mxGeometry x="449.12000000000023" y="954.5649999999999" width="350" height="40" as="geometry" />
        </mxCell>
        <mxCell id="M3HQzFZ4Vhxi7hrGT2tp-141" style="edgeStyle=orthogonalEdgeStyle;rounded=1;orthogonalLoop=1;jettySize=auto;html=1;fontSize=16;fontColor=#000000;endArrow=classic;endFill=1;strokeColor=#6c8ebf;strokeWidth=7;opacity=80;fillColor=#dae8fc;exitX=1;exitY=0.5;exitDx=0;exitDy=0;entryX=0.5;entryY=1;entryDx=0;entryDy=0;" edge="1" parent="1" source="M3HQzFZ4Vhxi7hrGT2tp-5">
          <mxGeometry relative="1" as="geometry">
            <mxPoint x="377.7" y="378.40000000000043" as="sourcePoint" />
            <mxPoint x="511.5599999999995" y="181.42999999999984" as="targetPoint" />
            <Array as="points">
              <mxPoint x="424" y="285" />
              <mxPoint x="424" y="181" />
            </Array>
          </mxGeometry>
        </mxCell>
        <mxCell id="M3HQzFZ4Vhxi7hrGT2tp-142" style="edgeStyle=orthogonalEdgeStyle;rounded=1;orthogonalLoop=1;jettySize=auto;html=1;fontSize=16;fontColor=#000000;endArrow=classic;endFill=1;strokeColor=#6c8ebf;strokeWidth=7;opacity=80;fillColor=#dae8fc;exitX=1.005;exitY=0.195;exitDx=0;exitDy=0;exitPerimeter=0;" edge="1" parent="1" source="M3HQzFZ4Vhxi7hrGT2tp-6">
          <mxGeometry relative="1" as="geometry">
            <mxPoint x="-102.5" y="330.40000000000043" as="sourcePoint" />
            <mxPoint x="37.5" y="330" as="targetPoint" />
            <Array as="points" />
          </mxGeometry>
        </mxCell>
        <mxCell id="M3HQzFZ4Vhxi7hrGT2tp-143" style="edgeStyle=orthogonalEdgeStyle;rounded=1;orthogonalLoop=1;jettySize=auto;html=1;fontSize=16;fontColor=#000000;endArrow=classic;endFill=1;strokeColor=#6c8ebf;strokeWidth=7;opacity=80;fillColor=#dae8fc;exitX=1;exitY=0.5;exitDx=0;exitDy=0;entryX=0.5;entryY=0;entryDx=0;entryDy=0;" edge="1" parent="1">
          <mxGeometry relative="1" as="geometry">
            <mxPoint x="392.5" y="651.8000000000002" as="sourcePoint" />
            <mxPoint x="501.5650000000005" y="779" as="targetPoint" />
            <Array as="points">
              <mxPoint x="434" y="652" />
              <mxPoint x="434" y="779" />
            </Array>
          </mxGeometry>
        </mxCell>
        <mxCell id="M3HQzFZ4Vhxi7hrGT2tp-214" value="&lt;font color=&quot;#000000&quot; style=&quot;font-size: 35px&quot;&gt;Sequence Multi-behavior&amp;nbsp;&lt;/font&gt;" style="text;html=1;resizable=0;autosize=1;align=center;verticalAlign=middle;points=[];fillColor=none;strokeColor=none;rounded=0;shadow=0;sketch=0;fontSize=22;fontColor=#CC0000;rotation=0;" vertex="1" parent="1">
          <mxGeometry x="398.87000000000023" y="-34.995000000000005" width="410" height="40" as="geometry" />
        </mxCell>
        <mxCell id="M3HQzFZ4Vhxi7hrGT2tp-215" style="edgeStyle=orthogonalEdgeStyle;rounded=1;orthogonalLoop=1;jettySize=auto;html=1;fontSize=16;fontColor=#000000;endArrow=classic;endFill=1;strokeColor=#6c8ebf;strokeWidth=7;opacity=80;fillColor=#dae8fc;exitX=1;exitY=0.465;exitDx=0;exitDy=0;exitPerimeter=0;entryX=-0.001;entryY=0.432;entryDx=0;entryDy=0;entryPerimeter=0;" edge="1" parent="1" target="M3HQzFZ4Vhxi7hrGT2tp-102">
          <mxGeometry relative="1" as="geometry">
            <mxPoint x="-130" y="560.4000000000005" as="sourcePoint" />
            <mxPoint x="10" y="560" as="targetPoint" />
            <Array as="points">
              <mxPoint x="-84" y="560" />
            </Array>
          </mxGeometry>
        </mxCell>
        <mxCell id="M3HQzFZ4Vhxi7hrGT2tp-216" value="&lt;font style=&quot;font-size: 35px&quot;&gt;Sequence view &lt;br&gt;construction&lt;/font&gt;" style="text;html=1;align=center;verticalAlign=middle;resizable=0;points=[];autosize=1;strokeColor=none;fillColor=none;fontSize=16;fontColor=#000000;" vertex="1" parent="1">
          <mxGeometry x="-208" y="182.0000000000001" width="250" height="60" as="geometry" />
        </mxCell>
      </root>
    </mxGraphModel>
  </diagram>
</mxfile>
